<svg width="209" height="767" viewBox="0 0 209 767" fill="none" xmlns="http://www.w3.org/2000/svg">
<path d="M185.422 468.995C183.878 466.061 181.461 463.617 178.467 461.844C175.475 460.078 171.863 459 167.942 459C163.11 458.988 159.094 460.247 156.064 461.991C153.022 463.728 151.71 465.751 151.71 465.751C151.199 466.195 150.91 466.84 150.922 467.516C150.936 468.192 151.247 468.826 151.775 469.248L155.985 472.621C156.844 473.308 158.072 473.282 158.9 472.56C158.9 472.56 159.418 471.625 161.039 470.699C162.669 469.779 164.782 469.038 167.942 469.028C170.698 469.022 173.101 470.051 174.741 471.456C175.556 472.152 176.164 472.932 176.537 473.645C176.913 474.364 177.05 474.993 177.048 475.47C177.04 477.083 176.727 478.138 176.275 479.038C175.929 479.709 175.479 480.305 174.899 480.883C174.034 481.748 172.86 482.547 171.543 483.282C170.226 484.026 168.805 484.681 167.37 485.471C165.732 486.378 163.999 487.681 162.718 489.637C162.079 490.603 161.58 491.709 161.263 492.876C160.941 494.044 160.796 495.268 160.796 496.517C160.796 497.85 160.796 498.944 160.796 498.944C160.796 500.2 161.815 501.218 163.071 501.218H168.551C169.807 501.218 170.825 500.2 170.825 498.944C170.825 498.944 170.825 497.85 170.825 496.517C170.825 496.036 170.88 495.725 170.933 495.528C171.024 495.234 171.074 495.161 171.222 494.981C171.374 494.811 171.679 494.551 172.242 494.24C173.064 493.777 174.386 493.153 175.883 492.344C178.123 491.119 180.848 489.456 183.145 486.712C184.288 485.342 185.298 483.693 185.995 481.794C186.699 479.894 187.078 477.759 187.077 475.47C187.074 473.152 186.446 470.95 185.422 468.995Z" fill="black"/>
<path d="M165.813 506.63C162.397 506.63 159.627 509.4 159.627 512.816C159.627 516.23 162.397 519 165.813 519C169.227 519 171.996 516.23 171.996 512.816C171.996 509.4 169.227 506.63 165.813 506.63Z" fill="black"/>
<path d="M55.4215 420.995C53.8779 418.061 51.4612 415.617 48.4674 413.844C45.4749 412.078 41.8626 411 37.9421 411C33.1095 410.988 29.0944 412.247 26.0641 413.991C23.0217 415.728 21.7099 417.751 21.7099 417.751C21.1986 418.195 20.9102 418.84 20.9222 419.516C20.9361 420.192 21.2474 420.826 21.7745 421.248L25.9854 424.621C26.8437 425.308 28.0721 425.282 28.9005 424.56C28.9005 424.56 29.4177 423.625 31.0388 422.699C32.6689 421.779 34.7824 421.038 37.9421 421.028C40.698 421.022 43.1009 422.051 44.7408 423.456C45.5555 424.152 46.1641 424.932 46.5371 425.645C46.913 426.364 47.0502 426.993 47.0484 427.47C47.0404 429.083 46.727 430.138 46.2746 431.038C45.9295 431.709 45.479 432.305 44.899 432.883C44.0337 433.748 42.8602 434.547 41.5435 435.282C40.2257 436.026 38.8054 436.681 37.3702 437.471C35.7322 438.378 33.9987 439.681 32.7177 441.637C32.0792 442.603 31.5799 443.709 31.2627 444.876C30.9414 446.044 30.7963 447.268 30.7963 448.517C30.7963 449.85 30.7963 450.944 30.7963 450.944C30.7963 452.2 31.8147 453.218 33.0709 453.218H38.5509C39.807 453.218 40.8255 452.2 40.8255 450.944C40.8255 450.944 40.8255 449.85 40.8255 448.517C40.8255 448.036 40.8802 447.725 40.9329 447.528C41.0235 447.234 41.0743 447.161 41.2224 446.981C41.3736 446.811 41.6788 446.551 42.2417 446.24C43.0642 445.777 44.386 445.153 45.8827 444.344C48.1234 443.119 50.8476 441.456 53.1451 438.712C54.2879 437.342 55.2983 435.693 55.9954 433.794C56.6986 431.894 57.0784 429.759 57.0766 427.47C57.0745 425.152 56.4459 422.95 55.4215 420.995Z" fill="black"/>
<path d="M35.813 458.63C32.3968 458.63 29.627 461.4 29.627 464.816C29.627 468.23 32.3969 471 35.813 471C39.2274 471 41.9962 468.23 41.9962 464.816C41.9962 461.4 39.2274 458.63 35.813 458.63Z" fill="black"/>
<path d="M45.6493 239.33C44.1314 236.885 41.7549 234.847 38.811 233.37C35.8684 231.898 32.3163 231 28.4611 231C23.7091 230.99 19.761 232.039 16.7811 233.492C13.7894 234.94 12.4995 236.626 12.4995 236.626C11.9967 236.996 11.7131 237.534 11.725 238.096C11.7386 238.66 12.0447 239.189 12.5631 239.54L16.7038 242.351C17.5478 242.923 18.7556 242.902 19.5702 242.3C19.5702 242.3 20.0789 241.521 21.6729 240.749C23.2758 239.983 25.3541 239.365 28.4611 239.357C31.1711 239.352 33.534 240.209 35.1466 241.38C35.9477 241.96 36.5461 242.61 36.9129 243.204C37.2826 243.803 37.4175 244.327 37.4157 244.725C37.4078 246.069 37.0997 246.949 36.6548 247.698C36.3154 248.257 35.8724 248.754 35.3022 249.235C34.4513 249.957 33.2973 250.623 32.0025 251.235C30.7067 251.855 29.3101 252.401 27.8988 253.06C26.2881 253.815 24.5835 254.901 23.3239 256.531C22.696 257.336 22.205 258.258 21.8931 259.23C21.5772 260.203 21.4345 261.223 21.4345 262.264C21.4345 263.375 21.4345 264.286 21.4345 264.286C21.4345 265.333 22.4359 266.182 23.6712 266.182H29.0598C30.295 266.182 31.2965 265.333 31.2965 264.286C31.2965 264.286 31.2965 263.375 31.2965 262.264C31.2965 261.863 31.3503 261.605 31.4022 261.44C31.4912 261.195 31.5411 261.134 31.6868 260.985C31.8354 260.843 32.1356 260.626 32.6891 260.366C33.4979 259.981 34.7977 259.46 36.2694 258.787C38.4728 257.766 41.1516 256.38 43.4107 254.093C44.5345 252.952 45.528 251.578 46.2136 249.995C46.9051 248.412 47.2786 246.632 47.2767 244.725C47.2747 242.793 46.6565 240.958 45.6493 239.33Z" fill="black"/>
<path d="M26.3681 270.691C23.0088 270.691 20.2852 273 20.2852 275.846C20.2852 278.692 23.009 281 26.3681 281C29.7256 281 32.4483 278.692 32.4483 275.846C32.4483 273 29.7256 270.691 26.3681 270.691Z" fill="black"/>
<path d="M194.015 624.963C193.464 625.645 193.009 626.627 192.625 627.672C192.225 628.762 191.842 630.089 191.496 631.585C190.802 634.579 190.228 638.349 189.953 642.439L193.694 642.691C193.957 638.782 194.504 635.213 195.149 632.431C195.471 631.04 195.813 629.87 196.145 628.966C196.494 628.017 196.78 627.508 196.934 627.318L194.015 624.963ZM163.864 643.336C165.509 638.825 168.447 634.011 172.103 629.848C175.765 625.679 180.052 622.271 184.331 620.451L182.864 617C177.921 619.102 173.197 622.919 169.285 627.374C165.367 631.835 162.168 637.044 160.341 642.051L163.864 643.336ZM186.555 645.74H181.458V649.49H186.555V645.74ZM181.458 645.74H170.625V649.49H181.458V645.74ZM170.625 645.74H166.167V649.49H170.625V645.74ZM183.333 647.615C183.333 645.374 184.176 640.603 185.871 635.584C187.573 630.544 189.999 625.667 192.927 622.951L190.377 620.202C186.742 623.573 184.072 629.19 182.318 634.385C180.556 639.6 179.583 644.805 179.583 647.615H183.333ZM160.341 642.051C159.615 644.041 160.1 645.981 161.305 647.368C162.474 648.714 164.263 649.49 166.167 649.49V645.74C165.257 645.74 164.534 645.368 164.136 644.909C163.773 644.491 163.632 643.971 163.864 643.336L160.341 642.051ZM189.953 642.439C189.827 644.304 188.319 645.74 186.555 645.74V649.49C190.421 649.49 193.445 646.394 193.694 642.691L189.953 642.439ZM172.5 647.615C172.5 647.23 172.606 646.514 172.884 645.466C173.154 644.45 173.557 643.226 174.082 641.867C175.132 639.149 176.637 635.968 178.438 632.945C180.246 629.91 182.308 627.108 184.45 625.09C186.629 623.037 188.65 622.018 190.402 622.018V618.268C187.238 618.268 184.329 620.051 181.878 622.36C179.391 624.704 177.123 627.824 175.216 631.025C173.302 634.239 171.706 637.61 170.584 640.517C170.023 641.97 169.572 643.326 169.26 644.503C168.956 645.648 168.75 646.738 168.75 647.615H172.5Z" fill="black"/>
<path d="M179.206 593.029C179.325 594.057 180.255 594.795 181.284 594.676C182.312 594.557 183.05 593.627 182.931 592.598L179.206 593.029ZM180.748 599.733C181.416 598.942 181.315 597.759 180.523 597.091C179.731 596.424 178.548 596.525 177.881 597.317L180.748 599.733ZM204.42 595.978C203.705 595.229 202.519 595.201 201.769 595.916C201.02 596.631 200.993 597.818 201.708 598.567L204.42 595.978ZM199.291 591.59C199.201 592.621 199.964 593.531 200.995 593.621C202.027 593.712 202.937 592.949 203.027 591.917L199.291 591.59ZM199.981 603.912L199.005 604.175L199.981 607.796L200.957 607.533L199.981 603.912ZM194.579 607.648L194.086 608.537L197.367 610.353L197.86 609.464L194.579 607.648ZM188.565 608.923L188.049 608.087L184.857 610.055L185.373 610.891L188.565 608.923ZM183.416 604.999L182.434 604.839L181.832 608.54L182.813 608.7L183.416 604.999ZM187.412 589.056L188.334 589.41L189.679 585.91L188.758 585.555L187.412 589.056ZM193.926 589.125L194.837 588.674L193.173 585.313L192.262 585.764L193.926 589.125ZM188.334 589.41C189.195 589.741 190.133 590.142 191.158 590.088L190.96 586.343C190.959 586.343 190.957 586.344 190.954 586.343C190.951 586.343 190.943 586.343 190.929 586.341C190.899 586.336 190.842 586.325 190.74 586.295C190.511 586.228 190.213 586.115 189.679 585.91L188.334 589.41ZM192.262 585.764C191.736 586.024 191.436 586.172 191.202 586.266C191.096 586.308 191.034 586.327 191 586.336C190.983 586.34 190.974 586.342 190.969 586.342C190.964 586.343 190.962 586.343 190.96 586.343L191.158 590.088C192.169 590.035 193.072 589.548 193.926 589.125L192.262 585.764ZM182.931 592.598C182.703 590.625 182.562 589.359 182.591 588.463C182.606 588.036 182.658 587.814 182.697 587.707C182.706 587.683 182.714 587.667 182.718 587.658C182.723 587.649 182.726 587.645 182.726 587.645C182.726 587.644 182.727 587.644 182.726 587.645C182.725 587.646 182.726 587.645 182.731 587.641L180.415 584.692C179.18 585.661 178.886 587.066 178.843 588.339C178.802 589.582 178.992 591.181 179.206 593.029L182.931 592.598ZM188.758 585.555C187.036 584.893 185.541 584.313 184.333 584.048C183.091 583.774 181.656 583.718 180.415 584.692L182.731 587.641C182.735 587.64 182.738 587.636 182.731 587.641C182.728 587.643 182.744 587.634 182.789 587.629C182.895 587.617 183.116 587.62 183.527 587.71C184.392 587.9 185.57 588.348 187.412 589.056L188.758 585.555ZM182.434 604.839C180.473 604.52 179.22 604.311 178.38 604.04C177.555 603.775 177.686 603.624 177.745 603.794L174.2 605.017C174.727 606.545 176.041 607.227 177.231 607.61C178.405 607.988 179.998 608.242 181.832 608.54L182.434 604.839ZM177.881 597.317C176.65 598.778 175.589 600.029 174.925 601.094C174.259 602.16 173.682 603.516 174.2 605.017L177.745 603.794C177.794 603.938 177.618 603.861 178.105 603.08C178.594 602.298 179.439 601.288 180.748 599.733L177.881 597.317ZM188.049 608.087C187.572 607.314 187.064 606.412 186.206 605.842L184.129 608.964C184.104 608.947 184.133 608.952 184.252 609.114C184.392 609.302 184.558 609.57 184.857 610.055L188.049 608.087ZM182.813 608.7C183.382 608.792 183.699 608.846 183.932 608.903C184.133 608.953 184.153 608.98 184.129 608.964L186.206 605.842C185.354 605.274 184.324 605.147 183.416 604.999L182.813 608.7ZM194.086 608.537C193.105 610.31 192.466 611.456 191.908 612.192C191.641 612.545 191.463 612.706 191.363 612.776C191.319 612.806 191.3 612.812 191.303 612.811C191.304 612.811 191.307 612.81 191.311 612.809C191.316 612.808 191.318 612.808 191.316 612.808L191.514 616.553C193.083 616.47 194.134 615.465 194.898 614.455C195.657 613.453 196.445 612.02 197.367 610.353L194.086 608.537ZM185.373 610.891C186.335 612.452 187.169 613.816 187.966 614.751C188.782 615.71 189.91 616.638 191.514 616.553L191.316 612.808C191.315 612.808 191.318 612.808 191.326 612.809C191.333 612.809 191.341 612.811 191.348 612.813C191.363 612.816 191.358 612.818 191.328 612.8C191.253 612.757 191.089 612.634 190.821 612.319C190.256 611.657 189.596 610.596 188.565 608.923L185.373 610.891ZM199.005 604.175C198.084 604.423 197.098 604.653 196.3 605.279L198.616 608.229C198.617 608.228 198.656 608.192 198.862 608.119C199.098 608.035 199.418 607.947 199.981 607.796L199.005 604.175ZM197.86 609.464C198.476 608.35 198.557 608.275 198.616 608.229L196.3 605.279C195.504 605.904 195.044 606.807 194.579 607.648L197.86 609.464ZM201.708 598.567C203.062 599.986 203.919 600.892 204.417 601.606C204.654 601.945 204.733 602.138 204.758 602.226C204.768 602.263 204.766 602.271 204.766 602.26C204.766 602.247 204.768 602.238 204.767 602.242L208.352 603.342C208.821 601.816 208.217 600.499 207.493 599.461C206.79 598.453 205.684 597.302 204.42 595.978L201.708 598.567ZM200.957 607.533C202.784 607.04 204.358 606.621 205.51 606.124C206.676 605.621 207.892 604.84 208.352 603.342L204.767 602.242C204.766 602.244 204.766 602.245 204.767 602.242C204.767 602.241 204.768 602.239 204.767 602.242C204.767 602.242 204.765 602.244 204.758 602.253C204.751 602.261 204.738 602.275 204.717 602.293C204.625 602.373 204.428 602.507 204.025 602.681C203.182 603.044 201.927 603.388 199.981 603.912L200.957 607.533ZM203.027 591.917C203.191 590.05 203.337 588.434 203.263 587.197C203.187 585.952 202.86 584.503 201.515 583.608L199.438 586.73C199.283 586.627 199.466 586.54 199.519 587.423C199.573 588.315 199.466 589.595 199.291 591.59L203.027 591.917ZM194.837 588.674C196.653 587.774 197.829 587.197 198.699 586.912C199.568 586.628 199.58 586.825 199.438 586.73L201.515 583.608C200.184 582.722 198.721 582.959 197.532 583.349C196.343 583.738 194.878 584.469 193.173 585.313L194.837 588.674Z" fill="black"/>
<path d="M142 88V124.463H152.553V135.013L169 124.463H193.203V88H142ZM195.612 96.0153V100.604H197.412V126.607H190.855H188.561V128.901V133.557L178.295 126.972L177.728 126.607H177.054H169.989L162.838 131.195H176.377L189.615 139.684L193.149 141.949V137.755V131.195H199.706H202V128.901V98.3095V96.0153H199.706H195.612Z" fill="black"/>
<path d="M137.153 652.408C138.42 650.136 139.053 649 140 649C140.947 649 141.58 650.136 142.847 652.408L143.174 652.996C143.534 653.642 143.714 653.965 143.995 654.178C144.276 654.391 144.625 654.47 145.324 654.628L145.96 654.772C148.42 655.329 149.65 655.607 149.942 656.548C150.235 657.489 149.397 658.469 147.72 660.43L147.286 660.937C146.809 661.494 146.571 661.773 146.464 662.118C146.357 662.462 146.393 662.834 146.465 663.578L146.53 664.254C146.784 666.871 146.911 668.179 146.145 668.76C145.379 669.342 144.227 668.812 141.924 667.751L141.328 667.477C140.674 667.175 140.347 667.025 140 667.025C139.653 667.025 139.326 667.175 138.671 667.477L138.076 667.751C135.773 668.812 134.621 669.342 133.855 668.76C133.089 668.179 133.216 666.871 133.469 664.254L133.535 663.578C133.607 662.834 133.643 662.462 133.536 662.118C133.429 661.773 133.19 661.494 132.714 660.937L132.28 660.43C130.603 658.469 129.765 657.489 130.057 656.548C130.35 655.607 131.58 655.329 134.04 654.772L134.676 654.628C135.375 654.47 135.724 654.391 136.005 654.178C136.285 653.965 136.465 653.642 136.825 652.996L137.153 652.408Z" stroke="black" stroke-width="3.75"/>
<path d="M158.576 663.204C159.21 662.068 159.526 661.5 160 661.5C160.473 661.5 160.79 662.068 161.423 663.204L161.587 663.498C161.767 663.821 161.857 663.982 161.997 664.089C162.138 664.195 162.312 664.235 162.662 664.314L162.98 664.386C164.21 664.664 164.825 664.803 164.971 665.274C165.117 665.744 164.698 666.235 163.86 667.215L163.643 667.469C163.405 667.747 163.286 667.887 163.232 668.059C163.178 668.231 163.196 668.417 163.232 668.789L163.265 669.127C163.392 670.435 163.455 671.089 163.072 671.38C162.689 671.671 162.114 671.406 160.962 670.876L160.664 670.739C160.337 670.588 160.173 670.512 160 670.512C159.826 670.512 159.663 670.588 159.336 670.739L159.038 670.876C157.886 671.406 157.31 671.671 156.927 671.38C156.544 671.089 156.608 670.435 156.735 669.127L156.767 668.789C156.803 668.417 156.821 668.231 156.768 668.059C156.714 667.887 156.595 667.747 156.357 667.469L156.14 667.215C155.301 666.235 154.882 665.744 155.029 665.274C155.175 664.803 155.79 664.664 157.02 664.386L157.338 664.314C157.687 664.235 157.862 664.195 158.002 664.089C158.143 663.982 158.233 663.821 158.413 663.498L158.576 663.204Z" stroke="black" stroke-width="3.75"/>
<path d="M118.577 663.204C119.21 662.068 119.527 661.5 120 661.5C120.473 661.5 120.79 662.068 121.423 663.204L121.587 663.498C121.767 663.821 121.857 663.982 121.998 664.089C122.138 664.195 122.313 664.235 122.662 664.314L122.98 664.386C124.21 664.664 124.825 664.803 124.971 665.274C125.118 665.744 124.698 666.235 123.86 667.215L123.643 667.469C123.405 667.747 123.286 667.887 123.232 668.059C123.178 668.231 123.196 668.417 123.233 668.789L123.265 669.127C123.392 670.435 123.455 671.089 123.072 671.38C122.689 671.671 122.114 671.406 120.962 670.876L120.664 670.739C120.337 670.588 120.173 670.512 120 670.512C119.827 670.512 119.663 670.588 119.336 670.739L119.038 670.876C117.886 671.406 117.311 671.671 116.928 671.38C116.545 671.089 116.608 670.435 116.735 669.127L116.768 668.789C116.804 668.417 116.822 668.231 116.768 668.059C116.714 667.887 116.595 667.747 116.357 667.469L116.14 667.215C115.302 666.235 114.882 665.744 115.029 665.274C115.175 664.803 115.79 664.664 117.02 664.386L117.338 664.314C117.687 664.235 117.862 664.195 118.002 664.089C118.143 663.982 118.233 663.821 118.413 663.498L118.577 663.204Z" stroke="black" stroke-width="3.75"/>
<path d="M122.5 694.971H128.15C130.677 694.971 133.231 695.234 135.691 695.741C140.042 696.637 144.622 696.746 149.017 696.035C151.185 695.684 153.315 695.147 155.244 694.216C156.985 693.376 159.117 692.192 160.55 690.865C161.98 689.54 163.47 687.372 164.527 685.677C165.434 684.224 164.995 682.441 163.561 681.358C161.968 680.155 159.604 680.155 158.011 681.358L153.493 684.771C151.742 686.094 149.83 687.311 147.552 687.675C147.278 687.719 146.991 687.758 146.691 687.793M146.691 687.793C146.601 687.804 146.51 687.814 146.417 687.823M146.691 687.793C147.056 687.715 147.417 687.49 147.757 687.194C149.365 685.79 149.467 683.425 148.071 681.858C147.748 681.494 147.369 681.191 146.948 680.94C139.954 676.769 129.074 679.946 122.5 684.607M146.691 687.793C146.6 687.813 146.508 687.823 146.417 687.823M146.417 687.823C145.109 687.957 143.578 687.992 141.879 687.832" stroke="black" stroke-width="3.75" stroke-linecap="round"/>
<path d="M122.5 682.75C122.5 680.679 120.821 679 118.75 679C116.679 679 115 680.679 115 682.75V695.25C115 697.321 116.679 699 118.75 699C120.821 699 122.5 697.321 122.5 695.25V682.75Z" stroke="black" stroke-width="3.75"/>
<path fill-rule="evenodd" clip-rule="evenodd" d="M152 115H158V100H152V115ZM181.893 104.194L179.287 112.363C178.857 113.914 177.199 115 175.29 115H161V100.026L163.579 92.2813C163.82 90.9688 165.176 90 166.771 90C168.555 90 170.001 91.205 170.001 92.6913V100H177.895C180.534 100 182.487 102.051 181.893 104.194Z" fill="#FDFCFC"/>
<g clip-path="url(#clip0_1109_2365)">
<path d="M102.61 286H102.614C118.589 286 133.282 289.531 145.425 295.286V295.285C157.21 300.894 166.69 308.512 172.872 317.536L173.46 318.414C177.412 324.473 179.837 331.2 179.992 338.222L180 338.902C180.007 346.022 178.584 352.654 175.956 358.571L175.698 359.142L175.695 359.147C173.097 364.836 169.392 369.846 165.155 374.093L164.304 374.929C155.616 383.266 145.377 388.559 136.509 392.537L134.762 393.312C131.68 394.649 128.776 395.836 126.201 396.887C124.282 397.67 122.527 398.384 121.033 399.025L119.629 399.643C117.189 400.728 115.72 401.697 114.882 402.455L114.855 402.479L114.83 402.504C114.525 402.8 114.184 403.135 113.882 403.578C113.575 404.027 113.363 404.503 113.155 405.046L113.14 405.088L113.125 405.129C112.833 406.006 112.577 407.256 112.577 409.057V417.146L114.577 417.146H112.577C112.577 419.842 109.677 422.729 105.14 422.729H82.4043C77.8666 422.728 74.9681 419.842 74.9678 417.146H72.9678C74.9676 417.146 74.9678 417.146 74.9678 417.146V409.057C74.9678 405.334 75.4716 401.709 76.5674 398.256L76.7949 397.568L76.7969 397.561C77.9551 394.137 79.7418 390.869 82.0215 387.968L82.4844 387.393L82.4893 387.387C87.5272 381.208 94.4039 377.025 101.051 374.067C103.996 372.763 106.93 371.57 109.838 370.383C112.732 369.201 115.602 368.022 118.373 366.766L118.374 366.767C123.901 364.288 128.947 361.54 132.73 358.501L132.729 358.5C135.266 356.469 137.296 354.327 138.869 351.869L138.879 351.854C140.886 348.65 142.271 344.908 142.388 339.446L142.395 338.912V338.91C142.404 336.973 141.76 334.679 140.261 332.22L139.949 331.726L139.616 331.23C137.892 328.747 135.289 326.162 131.954 323.872H131.955C125.023 319.1 115.074 315.629 103.714 315.436L102.61 315.427H102.609C89.642 315.46 80.7443 317.834 73.8125 320.879L73.1475 321.175L73.1396 321.179C69.6162 322.796 67.2429 324.443 65.7236 325.729C64.9647 326.37 64.4217 326.92 64.0557 327.327C63.921 327.477 63.8109 327.608 63.7227 327.716C60.9591 329.499 56.8962 329.525 54.0898 327.72H54.0889L36.6201 316.479L36.6191 316.478L36.3057 316.265C34.8908 315.248 34.1402 313.918 34.0176 312.613L34.001 312.334C33.9726 310.956 34.6534 309.5 36.1104 308.367L36.4131 308.145L36.6465 307.981L36.8242 307.761C36.8249 307.76 36.8261 307.759 36.8271 307.758C36.833 307.751 36.8439 307.737 36.8604 307.718C36.8934 307.679 36.9483 307.615 37.0244 307.529C37.1767 307.357 37.4163 307.096 37.7461 306.759C38.4059 306.085 39.4275 305.111 40.8369 303.955C43.479 301.788 47.4863 298.982 53.0371 296.318L54.168 295.787L54.1738 295.785C66.088 290.277 81.8219 286.221 100.767 286.009L102.61 286Z" stroke="black" stroke-width="4"/>
<path d="M93.7783 444.766C107.269 444.766 117.432 453.492 117.432 463.386C117.432 473.276 107.27 482 93.7783 482C80.2787 482 70.1133 473.276 70.1133 463.386C70.1134 453.492 80.2789 444.766 93.7783 444.766Z" stroke="black" stroke-width="4"/>
</g>
<path d="M96 483V767" stroke="black" stroke-width="2"/>
<path d="M107 0V284" stroke="black" stroke-width="2"/>
<rect x="9.75" y="524.75" width="68.5" height="68.5" rx="34.25" stroke="black" stroke-width="1.5"/>
<path fill-rule="evenodd" clip-rule="evenodd" d="M50.4444 544.556C50.4444 541.222 47.1511 539 44.5778 539C42.7867 539 42.6467 540.36 42.3711 543.044C42.2489 544.222 42.1022 545.653 41.7778 547.333C40.92 551.782 37.9556 557.467 35.12 559.167V572.333C35.1111 577.333 36.7778 579 44 579H52.3844C57.22 579 58.3911 575.816 58.8267 574.636L58.8556 574.556C59.1089 573.876 59.6511 573.34 60.2733 572.733C60.9622 572.053 61.7489 571.282 62.3333 570.111C63.0244 568.727 62.9333 567.496 62.8511 566.4C62.8 565.736 62.7533 565.122 62.8889 564.556C63.0311 563.956 63.2133 563.5 63.3889 563.064C63.7067 562.273 64 561.54 64 560.111C64 556.778 62.3378 554.56 58.8556 554.56H49.5556C49.5556 554.56 50.4444 547.889 50.4444 544.556ZM27.3333 556.778C26.4493 556.778 25.6014 557.129 24.9763 557.754C24.3512 558.379 24 559.227 24 560.111V575.667C24 576.551 24.3512 577.399 24.9763 578.024C25.6014 578.649 26.4493 579 27.3333 579C28.2174 579 29.0652 578.649 29.6904 578.024C30.3155 577.399 30.6667 576.551 30.6667 575.667V560.111C30.6667 559.227 30.3155 558.379 29.6904 557.754C29.0652 557.129 28.2174 556.778 27.3333 556.778Z" fill="black"/>
<defs>
<clipPath id="clip0_1109_2365">
<rect width="150" height="200" fill="white" transform="translate(32 284)"/>
</clipPath>
</defs>
</svg>
