<svg width="150" height="200" viewBox="0 0 150 200" fill="none" xmlns="http://www.w3.org/2000/svg">
<g clip-path="url(#clip0_1032_3826)">
<path d="M70.6104 2H70.6143C86.589 2.00003 101.282 5.53073 113.425 11.2861V11.2852C125.21 16.8939 134.69 24.5117 140.872 33.5361L141.46 34.4141C145.412 40.4731 147.837 47.1995 147.992 54.2217L148 54.9023C148.007 62.0216 146.584 68.6542 143.956 74.5713L143.698 75.1416L143.695 75.1475C141.097 80.8357 137.392 85.8463 133.155 90.0928L132.304 90.9287C123.616 99.2657 113.377 104.559 104.509 108.537L102.762 109.312C99.6798 110.649 96.7756 111.836 94.2012 112.887C92.2815 113.67 90.5275 114.384 89.0332 115.025L87.6289 115.643C85.1893 116.728 83.72 117.697 82.8818 118.455L82.8555 118.479L82.8301 118.504C82.5252 118.8 82.1844 119.135 81.8818 119.578C81.5754 120.027 81.363 120.503 81.1553 121.046L81.1396 121.088L81.125 121.129C80.8328 122.006 80.5772 123.256 80.5771 125.057V133.146L82.5771 133.146H80.5771C80.5768 135.842 77.6771 138.729 73.1396 138.729H50.4043C45.8666 138.728 42.9681 135.842 42.9678 133.146H40.9678C42.9676 133.146 42.9678 133.146 42.9678 133.146V125.057C42.9678 121.334 43.4716 117.709 44.5674 114.256L44.7949 113.568L44.7969 113.561C45.9551 110.137 47.7418 106.869 50.0215 103.968L50.4844 103.393L50.4893 103.387C55.5272 97.2081 62.4039 93.0249 69.0508 90.0674C71.9963 88.7634 74.9302 87.5704 77.8379 86.3828C80.732 85.2008 83.6024 84.022 86.373 82.7656L86.374 82.7666C91.9011 80.2878 96.9474 77.5405 100.73 74.501L100.729 74.5C103.266 72.4689 105.296 70.3272 106.869 67.8691L106.879 67.8535C108.886 64.6497 110.271 60.9083 110.388 55.4463L110.395 54.9121V54.9102C110.404 52.9734 109.76 50.6793 108.261 48.2197L107.949 47.7256L107.616 47.2305C105.892 44.747 103.289 42.162 99.9541 39.8721H99.9551C93.0231 35.0995 83.0739 31.629 71.7139 31.4355L70.6104 31.4268H70.6094C57.642 31.4596 48.7443 33.834 41.8125 36.8789L41.1475 37.1748L41.1396 37.1787C37.6162 38.7958 35.2429 40.4434 33.7236 41.7285C32.9647 42.3704 32.4217 42.9204 32.0557 43.3271C31.921 43.4769 31.8109 43.6075 31.7227 43.7158C28.9591 45.4991 24.8962 45.525 22.0898 43.7197H22.0889L4.62012 32.4785L4.61914 32.4775L4.30566 32.2646C2.89084 31.2479 2.1402 29.918 2.01758 28.6133L2.00098 28.334C1.97258 26.9559 2.65336 25.5004 4.11035 24.3672L4.41309 24.1445L4.64648 23.9814L4.82422 23.7607C4.82492 23.7599 4.82611 23.7591 4.82715 23.7578C4.83299 23.7507 4.84395 23.7372 4.86035 23.7178C4.89335 23.6787 4.94825 23.6152 5.02441 23.5293C5.17674 23.3575 5.4163 23.0957 5.74609 22.7588C6.40586 22.0849 7.42752 21.1109 8.83691 19.9551C11.479 17.7884 15.4863 14.9824 21.0371 12.3184L22.168 11.7871L22.1738 11.7852C34.088 6.27739 49.8219 2.2212 68.7666 2.00879L70.6104 2Z" stroke="black" stroke-width="4"/>
<path d="M61.7783 160.766C75.2691 160.766 85.4315 169.492 85.4316 179.386C85.4316 189.276 75.2698 198 61.7783 198C48.2787 198 38.1133 189.276 38.1133 179.386C38.1134 169.492 48.2789 160.766 61.7783 160.766Z" stroke="black" stroke-width="4"/>
</g>
<defs>
<clipPath id="clip0_1032_3826">
<rect width="150" height="200" fill="white"/>
</clipPath>
</defs>
</svg>
