<svg width="70" height="70" viewBox="0 0 70 70" fill="none" xmlns="http://www.w3.org/2000/svg">
<path d="M45.9375 59.0625H26.25C25.6463 59.0625 25.1562 59.5525 25.1562 60.1562C25.1562 60.76 25.6463 61.25 26.25 61.25H45.9375C46.5413 61.25 47.0312 60.76 47.0312 60.1562C47.0312 59.5525 46.5413 59.0625 45.9375 59.0625Z" fill="#404040"/>
<path d="M47.0312 64.5312C47.0312 63.9275 46.5413 63.4375 45.9375 63.4375H26.25C25.6463 63.4375 25.1562 63.9275 25.1562 64.5312C25.1562 65.135 25.6463 65.625 26.25 65.625H45.9375C46.5413 65.625 47.0312 65.135 47.0312 64.5312Z" fill="#808184"/>
<path d="M30.625 67.8125C30.0213 67.8125 29.5312 68.3025 29.5312 68.9062C29.5312 69.51 30.0213 70 30.625 70H41.5625C42.1663 70 42.6562 69.51 42.6562 68.9062C42.6562 68.3025 42.1663 67.8125 41.5625 67.8125H30.625Z" fill="#808184"/>
<path d="M48.1252 55.7812V54.4447C48.1252 48.9016 50.1509 43.4 53.9812 38.5328C57.3062 34.3109 59.0627 29.2469 59.0627 23.8831C59.0627 10.7122 48.2674 0 35.0002 0C34.0924 0 33.1671 0.0503125 32.2549 0.150937C21.5974 1.32344 12.7424 9.79781 11.2002 20.3022C10.1174 27.6828 12.4384 34.9781 17.5724 40.3178C21.7571 44.6753 24.0627 50.0872 24.0627 55.5581V55.7812C24.0627 56.385 24.5527 56.875 25.1565 56.875H47.0315C47.6352 56.875 48.1252 56.385 48.1252 55.7812ZM30.6252 30.625H26.7971C24.6862 30.625 22.969 28.6716 22.969 26.6C22.969 24.5284 24.6862 22.7084 26.7971 22.7084C28.908 22.7084 30.6252 24.2594 30.6252 26.3309V30.625ZM37.1877 54.6875H32.8127V32.8125H37.1877V54.6875ZM45.9377 54.6875H39.3752V32.8125H43.2034C46.5218 32.8125 49.219 29.8791 49.219 26.6C49.219 23.3209 46.5218 20.5209 43.2034 20.5209C39.8849 20.5209 37.1877 23.0519 37.1877 26.3309V30.625H32.8127V26.3309C32.8127 23.0519 30.1155 20.3853 26.7971 20.3853C23.4787 20.3853 20.7815 23.3209 20.7815 26.6C20.7815 29.8791 23.4787 32.8125 26.7971 32.8125H30.6252V54.6875H26.2327C26.003 48.9497 23.5071 43.3387 19.1496 38.8019C14.488 33.9522 12.3815 27.3262 13.3659 20.6194C14.7659 11.0841 22.8115 3.39062 32.4934 2.32531C45.7146 0.855312 56.8752 11.1016 56.8752 23.8809C56.8752 28.7503 55.2805 33.3463 52.264 37.1766C48.1252 42.4353 45.9377 48.405 45.9377 54.4447V54.6875ZM39.3752 30.625V26.3309C39.3752 24.2594 41.0924 22.5728 43.2034 22.5728C45.3143 22.5728 47.0315 24.5263 47.0315 26.5978C47.0315 28.6694 45.3143 30.625 43.2034 30.625H39.3752Z" fill="#404040"/>
<path d="M45.9377 54.6875H39.3752V32.8125H43.2034C46.5218 32.8125 49.219 29.8791 49.219 26.6C49.219 23.3209 46.5218 20.5209 43.2034 20.5209C39.8849 20.5209 37.1877 23.0519 37.1877 26.3309V30.625H32.8127V26.3309C32.8127 23.0519 30.1155 20.3853 26.7971 20.3853C23.4787 20.3853 20.7815 23.3209 20.7815 26.6C20.7815 29.8791 23.4787 32.8125 26.7971 32.8125H30.6252V54.6875H26.2327C26.003 48.9497 23.5071 43.3387 19.1496 38.8019C14.488 33.9522 12.3815 27.3262 13.3659 20.6194C14.7659 11.0841 22.8115 3.39062 32.4934 2.32531C45.7146 0.855312 56.8752 11.1016 56.8752 23.8809C56.8752 28.7503 55.2805 33.3463 52.264 37.1766C48.1252 42.4353 45.9377 48.405 45.9377 54.4447V54.6875Z" fill="#CF17CF"/>
<path d="M37.1877 54.6875H32.8127V32.8125H37.1877V54.6875Z" fill="#CF17CF"/>
<path d="M39.3752 30.625V26.3309C39.3752 24.2594 41.0924 22.5728 43.2034 22.5728C45.3143 22.5728 47.0315 24.5263 47.0315 26.5978C47.0315 28.6694 45.3143 30.625 43.2034 30.625H39.3752Z" fill="#CF17CF"/>
<path d="M30.6252 30.625H26.7971C24.6862 30.625 22.969 28.6716 22.969 26.6C22.969 24.5284 24.6862 22.7084 26.7971 22.7084C28.908 22.7084 30.6252 24.2594 30.6252 26.3309V30.625Z" fill="#CF17CF"/>
</svg>
