<svg width="17" height="16" viewBox="0 0 17 16" fill="none" xmlns="http://www.w3.org/2000/svg">
<path d="M11.834 1.33301H5.16732C3.32637 1.33301 1.83398 2.82539 1.83398 4.66634V11.333C1.83398 13.174 3.32637 14.6663 5.16732 14.6663H11.834C13.6749 14.6663 15.1673 13.174 15.1673 11.333V4.66634C15.1673 2.82539 13.6749 1.33301 11.834 1.33301Z" stroke="#BA3DC3" stroke-width="2" stroke-linecap="round" stroke-linejoin="round"/>
<path d="M11.1658 7.5802C11.2481 8.13503 11.1533 8.70168 10.895 9.19954C10.6367 9.69741 10.2279 10.1011 9.7269 10.3533C9.22589 10.6055 8.65812 10.6933 8.10434 10.6042C7.55057 10.515 7.03899 10.2536 6.64238 9.85698C6.24577 9.46036 5.98431 8.94878 5.8952 8.39501C5.80609 7.84124 5.89386 7.27346 6.14604 6.77245C6.39821 6.27144 6.80194 5.86269 7.29981 5.60436C7.79768 5.34603 8.36432 5.25126 8.91915 5.33353C9.4851 5.41746 10.0091 5.68118 10.4136 6.08574C10.8182 6.4903 11.0819 7.01425 11.1658 7.5802Z" stroke="#BA3DC3" stroke-width="2" stroke-linecap="round" stroke-linejoin="round"/>
<path d="M12.166 4.33301H12.1727" stroke="#BA3DC3" stroke-width="2" stroke-linecap="round" stroke-linejoin="round"/>
</svg>
