<svg width="162" height="768" viewBox="0 0 162 768" fill="none" xmlns="http://www.w3.org/2000/svg">
<path d="M153.597 2C153.597 2 168.872 54 140.097 89.5C140.097 89.5 125.119 105.082 113.597 112.5C89.0503 128.303 64.7321 114.413 41.4306 132C21.7459 146.857 9.36693 159.628 5.59681 184C1.02276 213.569 16.1733 237.973 35.5967 254.5C52.2826 268.698 58.7616 265.067 74.2644 270C74.2644 270 99.7286 271.925 113.597 279.5C141.463 294.72 156.514 318.341 154.097 350C151.957 378.027 133.064 397.187 113.597 409.5C93.8291 422.003 74.2644 420 74.2644 420C74.2644 420 52.2535 422.181 35.5967 434.5C18.4885 447.153 6.70819 470.2 5.59681 489.5C4.37741 510.676 16.5072 540.217 41.4306 556C52.9089 563.269 74.2644 567.5 74.2644 567.5C74.2644 567.5 101.822 566.985 121.597 581C142.842 596.057 157.379 620.073 154.097 649.5C151.069 676.638 137.402 693.121 113.597 706.5C99.7375 714.289 74.2644 717 74.2644 717C74.2644 717 48.7172 722.881 35.5967 732.5C22.0456 742.435 8.59682 766 8.59682 766" stroke="#A112A1" stroke-width="8"/>
</svg>
