<svg width="17" height="16" viewBox="0 0 17 16" fill="none" xmlns="http://www.w3.org/2000/svg">
<path d="M11.833 1.33398H5.16634C3.32539 1.33398 1.83301 2.82637 1.83301 4.66732V11.334C1.83301 13.1749 3.32539 14.6673 5.16634 14.6673H11.833C13.674 14.6673 15.1663 13.1749 15.1663 11.334V4.66732C15.1663 2.82637 13.674 1.33398 11.833 1.33398Z" stroke="#FDFCFD" stroke-width="2" stroke-linecap="round" stroke-linejoin="round"/>
<path d="M11.1668 7.5802C11.2491 8.13503 11.1543 8.70168 10.896 9.19954C10.6376 9.69741 10.2289 10.1011 9.72788 10.3533C9.22687 10.6055 8.6591 10.6933 8.10532 10.6042C7.55155 10.515 7.03997 10.2536 6.64336 9.85698C6.24674 9.46036 5.98528 8.94878 5.89618 8.39501C5.80707 7.84124 5.89484 7.27346 6.14701 6.77245C6.39919 6.27144 6.80292 5.86269 7.30079 5.60436C7.79865 5.34603 8.3653 5.25126 8.92013 5.33353C9.48608 5.41746 10.01 5.68118 10.4146 6.08574C10.8192 6.4903 11.0829 7.01425 11.1668 7.5802Z" stroke="#FDFCFD" stroke-width="2" stroke-linecap="round" stroke-linejoin="round"/>
<path d="M12.167 4.33398H12.1737" stroke="#FDFCFD" stroke-width="2" stroke-linecap="round" stroke-linejoin="round"/>
</svg>
