<svg width="168" height="170" viewBox="0 0 168 170" fill="none" xmlns="http://www.w3.org/2000/svg">
<g filter="url(#filter0_d_963_1738)">
<rect x="28" width="120" height="120" rx="60" fill="#FDFCFD" shape-rendering="crispEdges"/>
<rect x="33" y="5" width="110" height="110" rx="55" fill="#FDFCFD"/>
<rect x="33" y="5" width="110" height="110" rx="55" stroke="#CF17CF" stroke-width="2"/>
<g clip-path="url(#clip0_963_1738)">
<path d="M118.361 34.0931L98.6147 29.339C98.2876 29.2601 97.9517 29.2619 97.6319 29.3353C97.6291 29.336 97.6267 29.3356 97.6239 29.3362L77.8921 33.9739L58.6415 29.339C58.0038 29.1851 57.3311 29.3323 56.8158 29.7383C56.3004 30.1443 56 30.764 56 31.42V76.1105C56 77.0998 56.6775 77.96 57.6392 78.1915L77.3853 82.9458C77.551 82.9856 77.7191 83.0053 77.8863 83.0053C78.0505 83.0053 78.2136 82.985 78.3726 82.9479C78.3737 82.9477 78.375 82.9486 78.3761 82.9484L85.0312 81.3839L88.1961 87.7294C89.1027 89.5473 90.9806 90.7219 92.9806 90.7219C93.7803 90.7219 94.5476 90.5415 95.2613 90.1855C97.8401 88.8993 98.8666 85.7047 97.55 83.0643L95.4865 78.9267L98.1081 78.3106L117.359 82.9458C117.524 82.9856 117.693 83.0053 117.86 83.0053C118.335 83.0053 118.803 82.8467 119.184 82.5463C119.7 82.1403 120 81.5205 120 80.8646V36.1741C120 35.185 119.322 34.3247 118.361 34.0931ZM88.7449 72.0108C88.6934 72.0108 88.6422 72.0139 88.5909 72.0151L87.466 69.7598C90.0002 67.9928 91.8941 65.4708 92.892 62.4873C94.1192 58.8184 93.8443 54.8909 92.1175 51.4287C89.7812 46.7444 85.2023 43.7416 80.0267 43.4343V37.8697L95.9733 34.1215V74.4148L93.523 74.9906C92.6138 73.1801 90.7404 72.0108 88.7449 72.0108ZM79.1465 47.6874C83.0455 47.6874 86.5478 49.8533 88.2866 53.3394C89.503 55.7783 89.697 58.5452 88.8322 61.1298C87.9677 63.7143 86.1485 65.8078 83.7096 67.024C82.2788 67.7375 80.7501 68.0995 79.1654 68.0995C75.2662 68.0995 71.7643 65.9336 70.0255 62.4475C67.5144 57.4128 69.5676 51.2735 74.6022 48.7627C76.0329 48.049 77.5618 47.6874 79.1465 47.6874ZM80.0267 72.3548C81.2602 72.2821 82.4643 72.0481 83.6327 71.666L84.7591 73.9244C83.9947 74.8783 83.5851 76.0844 83.6032 77.3224L80.0265 78.1628L80.0267 72.3548ZM60.2809 74.4241V34.1368L75.7458 37.86V43.8133C74.6992 44.068 73.678 44.4395 72.6917 44.9315C65.5446 48.4961 62.6301 57.2107 66.1945 64.3578C68.1397 68.2585 71.6406 70.9929 75.7458 71.9766V78.1473L60.2809 74.4241ZM93.3506 86.355C93.2357 86.4121 93.1112 86.441 92.9806 86.441C92.5897 86.441 92.2152 86.1968 92.0268 85.8189L88.0067 77.7579C87.7479 77.2388 87.9164 76.6074 88.3745 76.3783C88.3745 76.3781 88.3745 76.3781 88.3745 76.3781C88.375 76.3779 88.3752 76.3779 88.3754 76.3777C88.49 76.3208 88.6144 76.2919 88.7449 76.2919C89.1358 76.2919 89.5104 76.5361 89.6987 76.9141L93.7188 84.975C93.9779 85.4941 93.8091 86.126 93.3506 86.355ZM115.719 78.1477L100.254 74.4243V34.1368L115.719 37.86V78.1477Z" fill="black"/>
<path d="M101.483 55.7168H90.9961V60.2113H101.483V55.7168Z" fill="black"/>
</g>
</g>
<defs>
<filter id="filter0_d_963_1738" x="0" y="0" width="168" height="170" filterUnits="userSpaceOnUse" color-interpolation-filters="sRGB">
<feFlood flood-opacity="0" result="BackgroundImageFix"/>
<feColorMatrix in="SourceAlpha" type="matrix" values="0 0 0 0 0 0 0 0 0 0 0 0 0 0 0 0 0 0 127 0" result="hardAlpha"/>
<feOffset dx="-4" dy="26"/>
<feGaussianBlur stdDeviation="12"/>
<feComposite in2="hardAlpha" operator="out"/>
<feColorMatrix type="matrix" values="0 0 0 0 0.188235 0 0 0 0 0.0313726 0 0 0 0 0.270588 0 0 0 0.3 0"/>
<feBlend mode="normal" in2="BackgroundImageFix" result="effect1_dropShadow_963_1738"/>
<feBlend mode="normal" in="SourceGraphic" in2="effect1_dropShadow_963_1738" result="shape"/>
</filter>
<clipPath id="clip0_963_1738">
<rect width="64" height="64" fill="white" transform="translate(56 28)"/>
</clipPath>
</defs>
</svg>
