<svg width="168" height="170" viewBox="0 0 168 170" fill="none" xmlns="http://www.w3.org/2000/svg">
<g filter="url(#filter0_d_963_1702)">
<rect x="28" width="120" height="120" rx="60" fill="#FDFCFD" shape-rendering="crispEdges"/>
<rect x="33" y="5" width="110" height="110" rx="55" fill="#FDFCFD"/>
<rect x="33" y="5" width="110" height="110" rx="55" stroke="#CF17CF" stroke-width="2"/>
<path d="M119.988 92H118.488V88.4525C118.488 84.0496 115.878 80.0959 111.991 78.6155C111.708 78.5072 111.514 78.2296 111.491 77.9069C111.47 77.5842 111.627 77.2795 111.893 77.1283C114.128 75.8669 115.518 73.4138 115.518 70.7238C115.518 66.7272 112.516 63.4776 108.823 63.4776C105.13 63.4776 102.128 66.7272 102.128 70.7238C102.128 73.4116 103.518 75.8669 105.753 77.1283C106.019 77.2773 106.176 77.5842 106.155 77.9069C106.132 78.2319 105.938 78.5095 105.655 78.6155C101.768 80.0959 99.1582 84.0496 99.1582 88.4525V92H97.6585V88.4525C97.6585 84.0496 95.0486 80.0959 91.1619 78.6155C90.8786 78.5072 90.6849 78.2296 90.662 77.9069C90.6412 77.5842 90.7974 77.2795 91.064 77.1283C93.299 75.8669 94.6883 73.4138 94.6883 70.7238C94.6883 66.7272 91.6868 63.4776 87.9937 63.4776C84.3028 63.4776 81.2992 66.7272 81.2992 70.7238C81.2992 73.4116 82.6885 75.8669 84.9235 77.1283C85.188 77.2773 85.3463 77.5842 85.3255 77.9069C85.3047 78.2319 85.1089 78.5095 84.8277 78.6155C80.941 80.0959 78.329 84.0496 78.329 88.4525V92H76.8293V88.4525C76.8293 84.0496 74.2173 80.0959 70.3305 78.6155C70.0493 78.5072 69.8535 78.2296 69.8327 77.9069C69.8119 77.5842 69.9681 77.2795 70.2347 77.1283C72.4697 75.8669 73.859 73.4138 73.859 70.7238C73.859 66.7272 70.8554 63.4776 67.1645 63.4776C63.4735 63.4776 60.47 66.7272 60.47 70.7238C60.47 73.4116 61.8593 75.8669 64.0943 77.1283C64.3588 77.2773 64.5171 77.5842 64.4963 77.9069C64.4754 78.2319 64.2796 78.5095 63.9984 78.6155C60.1117 80.0959 57.4997 84.0496 57.4997 88.4525V92H56V88.4525C56 83.8894 58.4204 79.7461 62.153 77.7038C60.1617 76.0406 58.9723 73.4838 58.9723 70.7216C58.9723 65.8291 62.6487 61.8505 67.1666 61.8505C71.6844 61.8505 75.3608 65.8291 75.3608 70.7216C75.3608 73.4838 74.1715 76.0384 72.1802 77.7038C74.6818 79.0691 76.5939 81.3845 77.5833 84.1354C78.5727 81.3845 80.4848 79.0714 82.9864 77.7038C80.9951 76.0406 79.8058 73.4838 79.8058 70.7216C79.8058 65.8291 83.4821 61.8505 88 61.8505C92.5179 61.8505 96.1963 65.8291 96.1963 70.7216C96.1963 73.4838 95.0049 76.0384 93.0136 77.7038C95.5152 79.0714 97.4273 81.3845 98.4167 84.1354C99.4061 81.3845 101.318 79.0736 103.82 77.7038C101.829 76.0406 100.637 73.4838 100.637 70.7216C100.637 65.8291 104.316 61.8505 108.833 61.8505C113.351 61.8505 117.03 65.8291 117.03 70.7216C117.03 73.4838 115.838 76.0384 113.847 77.7038C117.58 79.7439 120 83.8872 120 88.4525V92H119.988ZM119.988 58.1495H118.488V54.602C118.488 50.1992 115.878 46.2454 111.991 44.765C111.708 44.6567 111.514 44.3791 111.491 44.0564C111.47 43.7337 111.629 43.4268 111.893 43.2779C114.128 42.0164 115.518 39.5633 115.518 36.8756C115.518 32.879 112.516 29.6271 108.823 29.6271C105.13 29.6271 102.128 32.879 102.128 36.8756C102.128 39.5656 103.518 42.0186 105.753 43.2779C106.017 43.4268 106.176 43.7337 106.155 44.0564C106.132 44.3791 105.938 44.659 105.655 44.765C101.768 46.2454 99.1582 50.1992 99.1582 54.602V58.1495H97.6585V54.602C97.6585 50.1992 95.0486 46.2454 91.1619 44.765C90.8786 44.6567 90.6849 44.3791 90.662 44.0564C90.6412 43.7337 90.7995 43.4268 91.064 43.2779C93.299 42.0164 94.6883 39.5633 94.6883 36.8756C94.6883 32.879 91.6868 29.6271 87.9937 29.6271C84.3028 29.6271 81.2992 32.879 81.2992 36.8756C81.2992 39.5656 82.6885 42.0186 84.9235 43.2779C85.188 43.4268 85.3463 43.7337 85.3255 44.0564C85.3047 44.3791 85.1089 44.659 84.8277 44.765C80.941 46.2454 78.329 50.1992 78.329 54.602V58.1495H76.8293V54.602C76.8293 50.1969 74.2173 46.2432 70.3305 44.765C70.0493 44.6567 69.8535 44.3769 69.8327 44.0542C69.8119 43.7315 69.9681 43.4245 70.2347 43.2756C72.4697 42.0164 73.859 39.5611 73.859 36.8733C73.859 32.8767 70.8554 29.6248 67.1645 29.6248C63.4735 29.6248 60.47 32.8767 60.47 36.8733C60.47 39.5633 61.8593 42.0164 64.0943 43.2756C64.3588 43.4245 64.5171 43.7315 64.4963 44.0542C64.4754 44.3769 64.2796 44.6567 63.9984 44.7628C60.1117 46.2432 57.4997 50.1969 57.4997 54.5997V58.1495H56V54.602C56 50.0389 58.4204 45.8956 62.153 43.8533C60.1617 42.1901 58.9723 39.6333 58.9723 36.8733C58.9703 31.9808 62.6466 28 67.1645 28C71.6824 28 75.3587 31.9808 75.3587 36.8733C75.3587 39.6333 74.1694 42.1901 72.1781 43.8533C74.6797 45.2209 76.5918 47.534 77.5812 50.2849C78.5706 47.534 80.4827 45.2209 82.9843 43.8533C80.993 42.1901 79.8037 39.6333 79.8037 36.8733C79.8037 31.9808 83.4801 28 87.9979 28C92.5158 28 96.1942 31.9808 96.1942 36.8733C96.1942 39.6333 95.0028 42.1901 93.0115 43.8533C95.5131 45.2209 97.4252 47.534 98.4146 50.2849C99.404 47.534 101.316 45.2209 103.818 43.8533C101.826 42.1901 100.635 39.6333 100.635 36.8733C100.635 31.9808 104.313 28 108.831 28C113.349 28 117.028 31.9808 117.028 36.8733C117.028 39.6333 115.836 42.1901 113.845 43.8533C117.578 45.8956 119.998 50.0389 119.998 54.602V58.1495H119.988Z" fill="black"/>
</g>
<defs>
<filter id="filter0_d_963_1702" x="0" y="0" width="168" height="170" filterUnits="userSpaceOnUse" color-interpolation-filters="sRGB">
<feFlood flood-opacity="0" result="BackgroundImageFix"/>
<feColorMatrix in="SourceAlpha" type="matrix" values="0 0 0 0 0 0 0 0 0 0 0 0 0 0 0 0 0 0 127 0" result="hardAlpha"/>
<feOffset dx="-4" dy="26"/>
<feGaussianBlur stdDeviation="12"/>
<feComposite in2="hardAlpha" operator="out"/>
<feColorMatrix type="matrix" values="0 0 0 0 0.188235 0 0 0 0 0.0313726 0 0 0 0 0.270588 0 0 0 0.3 0"/>
<feBlend mode="normal" in2="BackgroundImageFix" result="effect1_dropShadow_963_1702"/>
<feBlend mode="normal" in="SourceGraphic" in2="effect1_dropShadow_963_1702" result="shape"/>
</filter>
</defs>
</svg>
