<svg width="60" height="60" viewBox="0 0 60 60" fill="none" xmlns="http://www.w3.org/2000/svg">
<path d="M27.1532 8.40837C28.4197 6.13612 29.0532 5 30 5C30.9467 5 31.5802 6.13612 32.8467 8.40837L33.1745 8.99622C33.5345 9.64193 33.7145 9.96477 33.995 10.1778C34.2757 10.3908 34.6252 10.4699 35.324 10.6281L35.9605 10.772C38.4202 11.3286 39.65 11.6068 39.9425 12.5477C40.2352 13.4887 39.3967 14.4691 37.72 16.4299L37.286 16.9372C36.8095 17.4944 36.5712 17.773 36.4642 18.1177C36.357 18.4624 36.393 18.8341 36.465 19.5775L36.5305 20.2544C36.784 22.8706 36.911 24.1787 36.1447 24.7602C35.3787 25.3417 34.2272 24.8116 31.9242 23.7512L31.3285 23.4768C30.674 23.1755 30.3467 23.0248 30 23.0248C29.6532 23.0248 29.326 23.1755 28.6715 23.4768L28.0757 23.7512C25.7727 24.8116 24.6212 25.3417 23.8551 24.7602C23.0891 24.1787 23.2159 22.8706 23.4694 20.2544L23.535 19.5775C23.607 18.8341 23.643 18.4624 23.5359 18.1177C23.4287 17.773 23.1904 17.4944 22.7139 16.9372L22.2801 16.4299C20.6032 14.4691 19.7648 13.4887 20.0574 12.5477C20.35 11.6068 21.5798 11.3286 24.0395 10.772L24.6759 10.6281C25.3747 10.4699 25.7242 10.3908 26.005 10.1778C26.2855 9.96477 26.4655 9.64193 26.8255 8.99622L27.1532 8.40837Z" stroke="black" stroke-width="3.75"/>
<path d="M48.5765 19.2042C49.21 18.0681 49.5265 17.5 50 17.5C50.4735 17.5 50.79 18.0681 51.4235 19.2042L51.5872 19.4981C51.7672 19.821 51.8572 19.9824 51.9975 20.0889C52.1377 20.1954 52.3125 20.235 52.662 20.314L52.9802 20.386C54.21 20.6643 54.825 20.8034 54.9712 21.2739C55.1175 21.7443 54.6985 22.2345 53.86 23.215L53.643 23.4686C53.4047 23.7472 53.2857 23.8865 53.232 24.0589C53.1785 24.2312 53.1965 24.4171 53.2325 24.7888L53.2652 25.1273C53.392 26.4353 53.4555 27.0893 53.0725 27.38C52.6895 27.6708 52.1137 27.4058 50.9622 26.8755L50.6642 26.7385C50.337 26.5878 50.1735 26.5125 50 26.5125C49.8265 26.5125 49.663 26.5878 49.3357 26.7385L49.0377 26.8755C47.8862 27.4058 47.3105 27.6708 46.9275 27.38C46.5445 27.0893 46.608 26.4353 46.7347 25.1273L46.7675 24.7888C46.8035 24.4171 46.8215 24.2312 46.768 24.0589C46.7142 23.8865 46.5952 23.7472 46.357 23.4686L46.14 23.215C45.3015 22.2345 44.8825 21.7443 45.0287 21.2739C45.175 20.8034 45.79 20.6643 47.0197 20.386L47.338 20.314C47.6875 20.235 47.8622 20.1954 48.0025 20.0889C48.1427 19.9824 48.2327 19.821 48.4127 19.4981L48.5765 19.2042Z" stroke="black" stroke-width="3.75"/>
<path d="M8.57659 19.2042C9.20991 18.0681 9.52659 17.5 10 17.5C10.4734 17.5 10.7901 18.0681 11.4234 19.2042L11.5873 19.4981C11.7673 19.821 11.8572 19.9824 11.9975 20.0889C12.1378 20.1954 12.3126 20.235 12.6621 20.314L12.9802 20.386C14.2101 20.6643 14.825 20.8034 14.9713 21.2739C15.1176 21.7443 14.6984 22.2345 13.86 23.215L13.6431 23.4686C13.4048 23.7472 13.2857 23.8865 13.2321 24.0589C13.1785 24.2312 13.1965 24.4171 13.2325 24.7888L13.2653 25.1273C13.3921 26.4353 13.4555 27.0893 13.0724 27.38C12.6894 27.6708 12.1137 27.4058 10.9622 26.8755L10.6643 26.7385C10.337 26.5878 10.1734 26.5125 10 26.5125C9.82659 26.5125 9.66298 26.5878 9.33576 26.7385L9.03784 26.8755C7.88636 27.4058 7.31061 27.6708 6.92759 27.38C6.54456 27.0893 6.60796 26.4353 6.73471 25.1273L6.76751 24.7888C6.80354 24.4171 6.82154 24.2312 6.76794 24.0589C6.71436 23.8865 6.59524 23.7472 6.35696 23.4686L6.14006 23.215C5.30164 22.2345 4.88241 21.7443 5.02871 21.2739C5.17501 20.8034 5.78994 20.6643 7.01979 20.386L7.33796 20.314C7.68744 20.235 7.86219 20.1954 8.00249 20.0889C8.14279 19.9824 8.23278 19.821 8.41273 19.4981L8.57659 19.2042Z" stroke="black" stroke-width="3.75"/>
<path d="M12.5 50.9711H18.1498C20.677 50.9711 23.2313 51.2343 25.6908 51.7411C30.0415 52.6373 34.622 52.7458 39.0173 52.0346C41.1845 51.6836 43.315 51.1473 45.2437 50.2163C46.9847 49.3761 49.1173 48.1916 50.5498 46.8648C51.9803 45.5401 53.47 43.3718 54.5272 41.6768C55.434 40.2236 54.9955 38.4406 53.5612 37.3576C51.9682 36.1548 49.6042 36.1551 48.0115 37.3583L43.4935 40.7711C41.7425 42.0938 39.83 43.3113 37.5515 43.6748C37.2775 43.7186 36.9905 43.7583 36.691 43.7931M36.691 43.7931C36.6008 43.8036 36.5095 43.8136 36.417 43.8231M36.691 43.7931C37.0555 43.7151 37.4173 43.4901 37.757 43.1938C39.365 41.7903 39.4665 39.4251 38.0713 37.8578C37.7478 37.4943 37.3688 37.1911 36.9478 36.9398C29.9543 32.7686 19.0736 35.9456 12.5 40.6073M36.691 43.7931C36.5998 43.8126 36.5083 43.8231 36.417 43.8231M36.417 43.8231C35.1085 43.9573 33.578 43.9921 31.8795 43.8316" stroke="black" stroke-width="3.75" stroke-linecap="round"/>
<path d="M12.5 38.75C12.5 36.6789 10.8211 35 8.75 35C6.67893 35 5 36.6789 5 38.75V51.25C5 53.3211 6.67893 55 8.75 55C10.8211 55 12.5 53.3211 12.5 51.25V38.75Z" stroke="black" stroke-width="3.75"/>
</svg>
