<svg width="40" height="40" viewBox="0 0 40 40" fill="none" xmlns="http://www.w3.org/2000/svg">
<path fill-rule="evenodd" clip-rule="evenodd" d="M26.4444 5.55556C26.4444 2.22222 23.1511 0 20.5778 0C18.7867 0 18.6467 1.36 18.3711 4.04444C18.2489 5.22222 18.1022 6.65333 17.7778 8.33333C16.92 12.7822 13.9556 18.4667 11.12 20.1667V33.3333C11.1111 38.3333 12.7778 40 20 40H28.3844C33.22 40 34.3911 36.8156 34.8267 35.6356L34.8556 35.5556C35.1089 34.8756 35.6511 34.34 36.2733 33.7333C36.9622 33.0533 37.7489 32.2822 38.3333 31.1111C39.0244 29.7267 38.9333 28.4956 38.8511 27.4C38.8 26.7356 38.7533 26.1222 38.8889 25.5556C39.0311 24.9556 39.2133 24.5 39.3889 24.0644C39.7067 23.2733 40 22.54 40 21.1111C40 17.7778 38.3378 15.56 34.8556 15.56H25.5556C25.5556 15.56 26.4444 8.88889 26.4444 5.55556ZM3.33333 17.7778C2.44928 17.7778 1.60143 18.129 0.97631 18.7541C0.351189 19.3792 0 20.2271 0 21.1111V36.6667C1.86301e-08 37.5507 0.351189 38.3986 0.97631 39.0237C1.60143 39.6488 2.44928 40 3.33333 40C4.21739 40 5.06524 39.6488 5.69036 39.0237C6.31548 38.3986 6.66667 37.5507 6.66667 36.6667V21.1111C6.66667 20.2271 6.31548 19.3792 5.69036 18.7541C5.06524 18.129 4.21739 17.7778 3.33333 17.7778Z" fill="black"/>
</svg>
