<svg width="124" height="42" viewBox="0 0 124 42" fill="none" xmlns="http://www.w3.org/2000/svg">
<path d="M0 22.2149C0.113354 22.1254 0.226709 22.0538 0.327468 21.9464C2.11595 20.21 3.89183 18.4736 5.68031 16.7373C5.79367 16.6299 5.91962 16.5225 6.05816 16.3792C7.65771 19.3687 9.24468 22.3223 10.8316 25.276C18.7413 14.5355 27.5577 5.78196 37.7596 0C37.7092 0.0716033 37.6588 0.143207 37.5959 0.196909C37.5329 0.268512 37.4699 0.322215 37.4069 0.375917C28.2252 9.34423 20.4416 20.2995 14.3204 33.564C13.3506 35.6584 12.4816 37.8244 11.5747 39.9725C11.2725 40.7065 10.8694 40.8497 10.3782 40.3484C10.2019 40.1694 10.0633 39.9188 9.9248 39.6682C6.80126 33.8683 3.58955 28.158 0.214114 22.6445C0.151139 22.5371 0.0755696 22.4297 0 22.3402C0 22.2865 0 22.2507 0 22.2149Z" fill="#9A3AA2"/>
<path d="M36.0986 28.6155C36.0986 26.151 36.0986 23.6592 36.0986 21.1125C38.0831 21.1125 39.952 21.1125 41.8016 21.1125C41.8016 21.9066 41.8016 22.646 41.8016 23.4949C42.1484 23.0567 42.4181 22.646 42.7457 22.3174C44.2292 20.7291 45.9632 20.4005 47.7358 20.5922C48.4486 20.6744 49.1808 20.8661 49.8744 21.1947C51.4543 21.9888 52.3598 23.6044 52.4369 26.0141C52.4754 27.3011 52.4369 28.5608 52.4369 30.0669C52.5332 29.7109 52.5717 29.5466 52.6103 29.3823C53.7085 23.5496 56.2709 20.6744 60.5289 20.5375C61.5886 20.5101 62.6482 20.5375 63.8235 20.5375C63.8235 18.5659 63.8235 16.4026 63.8235 14.2119C65.808 14.2119 67.6769 14.2119 69.5072 14.2119C69.1604 23.2484 68.8136 32.2849 68.4668 41.3762C66.8291 41.3762 65.1144 41.3762 63.3611 41.3762C63.3611 40.6368 63.3611 39.9249 63.3611 39.076C61.3574 41.8143 59.0454 42.6358 56.4636 41.5131C53.7663 40.3356 52.6488 37.3508 52.2057 33.6267C52.1286 36.2007 52.0515 38.7748 51.9745 41.4036C50.067 41.4036 48.1789 41.4036 46.2908 41.4036C46.3871 38.9664 46.522 36.5293 46.599 34.1196C46.6376 32.8052 46.6568 31.4908 46.6183 30.1764C46.5798 28.8072 46.2522 27.6571 45.2311 27.1642C44.3063 26.7261 43.2081 27.1916 42.5145 28.3691C41.686 29.7656 41.4933 31.4908 41.397 33.2159C41.2429 35.8995 41.1465 38.6105 41.0309 41.3762C39.1235 41.3762 37.2161 41.3762 35.2894 41.3762C35.4821 38.1997 35.6748 35.0232 35.8674 31.9563C32.515 31.9563 29.2204 31.9563 25.9451 31.9563C25.6561 33.6267 26.1185 35.1054 27.1203 35.8995C28.4497 36.9401 29.8562 36.8579 31.2627 36.5019C32.3416 36.2281 33.4206 35.8447 34.5766 35.4614C34.4224 36.8032 34.2683 38.1176 34.0949 39.4593C33.8637 41.2666 33.8637 41.294 32.5921 41.5679C30.2801 42.0881 27.9681 42.1429 25.6561 41.6226C22.8624 40.9928 20.9935 38.4188 20.4155 34.4482C19.9146 30.9979 20.377 27.7667 21.7256 24.8366C22.9202 22.2078 24.7505 21.1125 26.8506 20.7018C28.469 20.4005 30.0681 20.5101 31.648 21.1399C34.0178 22.0709 35.5399 24.645 35.8096 28.0953C35.8289 28.2869 35.8482 28.4512 35.8482 28.6429C35.983 28.6155 36.0408 28.6155 36.0986 28.6155ZM63.5731 26.0963C59.7582 24.8366 57.8508 28.0953 57.9086 32.3397C57.9472 34.6946 59.2188 36.3103 60.7023 36.009C61.9161 35.7626 62.5905 34.6125 62.9951 33.079C63.5538 30.861 63.496 28.4786 63.5731 26.0963ZM30.5305 28.8894C30.7232 27.5476 30.4535 26.288 29.7984 25.7129C28.9699 25.0009 28.1029 25.0283 27.2745 25.7403C26.4653 26.4523 26.1185 27.5476 26.0607 28.8894C27.602 28.8894 29.0663 28.8894 30.5305 28.8894Z" fill="#9A3AA2"/>
<path d="M91.5076 41.3987C89.6194 41.3987 87.7698 41.3987 85.9395 41.3987C86.1321 34.6351 86.3441 27.8988 86.5367 21.1077C88.1937 21.1077 89.9855 21.1077 91.8158 21.1077C91.8158 21.7375 91.8158 22.3399 91.8158 23.0519C92.1626 22.6138 92.4131 22.2304 92.7021 21.9018C93.7232 20.6969 94.937 20.0945 96.1701 20.6696C97.3069 21.1898 98.4051 20.9982 99.5033 20.9982C102.316 21.0529 105.148 21.0255 107.961 21.0255C108.173 21.0255 108.385 21.0255 108.52 21.0255C108.52 22.7507 108.482 24.3663 108.539 26.0093C108.559 27.0225 108.308 27.6797 107.788 28.3643C105.958 30.6919 104.185 33.129 102.393 35.5113C102.316 35.6209 102.239 35.7578 102.085 35.9768C104.166 35.9768 106.15 35.9768 108.231 35.9768C108.135 37.8389 108.058 39.5914 107.961 41.3714C103.8 41.3714 99.6959 41.3714 95.5921 41.3714C95.5921 39.4271 95.5728 37.5377 95.6114 35.6482C95.6114 35.4018 95.8233 35.1553 95.9774 34.9363C97.9427 32.2527 99.9271 29.5418 101.892 26.8582C101.95 26.776 102.008 26.6665 102.124 26.4748C101.931 26.4474 101.796 26.3927 101.68 26.3927C100.235 26.4474 98.8097 26.4748 97.3646 26.5844C97.1142 26.6117 96.8637 26.8856 96.6325 27.0499C96.6518 27.132 96.671 27.2142 96.6903 27.2963C96.2664 27.2416 95.8426 27.132 95.4187 27.1046C93.5113 27.0499 92.1241 28.4738 91.9122 31.1574C91.6617 34.2243 91.6617 37.346 91.5654 40.4403C91.5076 40.7415 91.5076 41.0428 91.5076 41.3987Z" fill="#9A3AA2"/>
<path d="M77.7541 20.501C80.0853 20.5557 82.3781 21.2677 84.2084 23.8417C85.769 26.0598 86.2314 28.8255 86.0773 31.8377C85.7883 37.287 83.2836 40.9837 79.3725 41.7504C77.2724 42.1612 75.2109 41.9695 73.2264 40.7646C70.529 39.149 68.9684 35.3427 69.0648 31.2079C69.2189 25.1561 72.2438 21.3225 76.5403 20.6105C76.9063 20.5557 77.2531 20.5557 77.7541 20.501ZM74.7485 31.8103C74.7677 32.0841 74.7677 32.5223 74.8255 32.9604C75.0375 34.7403 75.9045 35.9999 77.0412 36.219C78.2935 36.4381 79.3918 35.6166 79.9505 34.001C80.4514 32.5496 80.5478 30.9888 80.3166 29.4279C80.1239 28.004 79.5459 26.9634 78.5247 26.6075C77.4843 26.2515 76.521 26.4705 75.7503 27.6206C74.9797 28.7434 74.8063 30.1399 74.7485 31.8103Z" fill="#9A3AA2"/>
<path d="M113.969 32.0227C113.853 34.3777 114.528 35.7468 116.107 36.404C117.63 37.0339 119.113 36.5957 120.597 36.1576C121.29 35.9385 121.965 35.6647 122.697 35.3909C122.485 37.2529 122.273 39.0328 122.042 40.8128C122.022 41.0044 121.83 41.2235 121.695 41.2509C118.978 42.045 116.223 42.2641 113.487 41.4973C110.462 40.6211 108.651 37.6089 108.381 33.2002C108.208 30.4892 108.574 27.9152 109.518 25.5329C110.694 22.4933 112.62 21.1241 114.932 20.686C116.512 20.3848 118.073 20.4669 119.614 21.042C122.677 22.1647 124.373 26.0258 123.93 30.7631C123.911 30.8726 123.891 30.9821 123.891 31.0917C123.93 31.8584 123.679 32.0501 123.14 32.0501C120.308 32.0227 117.475 32.0227 114.624 32.0227C114.451 32.0227 114.239 32.0227 113.969 32.0227ZM118.612 28.8736C118.805 26.7103 118.111 25.3686 116.782 25.2316C115.337 25.0947 114.162 26.7103 114.162 28.8736C115.645 28.8736 117.109 28.8736 118.612 28.8736Z" fill="#9A3AA2"/>
</svg>
