<svg width="172" height="65" viewBox="0 0 172 65" fill="none" xmlns="http://www.w3.org/2000/svg">
<rect width="172" height="64.6441" fill="#B40FBF"/>
<path d="M14.8242 30.2149C14.9376 30.1254 15.0509 30.0538 15.1517 29.9464C16.9402 28.21 18.7161 26.4736 20.5045 24.7373C20.6179 24.6299 20.7438 24.5225 20.8824 24.3792C22.4819 27.3687 24.0689 30.3223 25.6559 33.276C33.5655 22.5355 42.3819 13.782 52.5838 8C52.5334 8.0716 52.483 8.14321 52.4201 8.19691C52.3571 8.26851 52.2941 8.32221 52.2312 8.37592C43.0494 17.3442 35.2658 28.2995 29.1446 41.564C28.1748 43.6584 27.3058 45.8244 26.399 47.9725C26.0967 48.7065 25.6936 48.8497 25.2024 48.3484C25.0261 48.1694 24.8876 47.9188 24.749 47.6682C21.6255 41.8683 18.4138 36.158 15.0383 30.6445C14.9754 30.5371 14.8998 30.4297 14.8242 30.3402C14.8242 30.2865 14.8242 30.2507 14.8242 30.2149Z" fill="#FDFCFD"/>
<path d="M68.4619 35.2601C68.4619 32.7956 68.4619 30.3037 68.4619 27.757C70.4464 27.757 72.3153 27.757 74.1649 27.757C74.1649 28.5512 74.1649 29.2905 74.1649 30.1394C74.5117 29.7013 74.7814 29.2905 75.109 28.9619C76.5925 27.3737 78.3265 27.0451 80.0991 27.2368C80.8119 27.3189 81.5441 27.5106 82.2377 27.8392C83.8175 28.6333 84.7231 30.2489 84.8001 32.6587C84.8387 33.9457 84.8001 35.2053 84.8001 36.7114C84.8965 36.3554 84.935 36.1911 84.9735 36.0268C86.0717 30.1942 88.6342 27.3189 92.8922 27.182C93.9519 27.1546 95.0115 27.182 96.1868 27.182C96.1868 25.2104 96.1868 23.0471 96.1868 20.8564C98.1713 20.8564 100.04 20.8564 101.87 20.8564C101.524 29.8929 101.177 38.9294 100.83 48.0207C99.1924 48.0207 97.4777 48.0207 95.7244 48.0207C95.7244 47.2814 95.7244 46.5694 95.7244 45.7205C93.7207 48.4588 91.4086 49.2803 88.8269 48.1576C86.1295 46.9801 85.0121 43.9954 84.5689 40.2712C84.4919 42.8453 84.4148 45.4193 84.3377 48.0481C82.4303 48.0481 80.5422 48.0481 78.654 48.0481C78.7504 45.611 78.8852 43.1739 78.9623 40.7641C79.0008 39.4497 79.0201 38.1353 78.9816 36.8209C78.943 35.4518 78.6155 34.3017 77.5944 33.8088C76.6696 33.3706 75.5714 33.8361 74.8778 35.0136C74.0493 36.4102 73.8566 38.1353 73.7603 39.8605C73.6061 42.544 73.5098 45.255 73.3942 48.0207C71.4868 48.0207 69.5794 48.0207 67.6527 48.0207C67.8454 44.8442 68.0381 41.6678 68.2307 38.6008C64.8783 38.6008 61.5837 38.6008 58.3083 38.6008C58.0193 40.2712 58.4817 41.7499 59.4836 42.544C60.813 43.5846 62.2195 43.5025 63.626 43.1465C64.7049 42.8726 65.7838 42.4893 66.9398 42.1059C66.7857 43.4477 66.6316 44.7621 66.4582 46.1039C66.227 47.9112 66.227 47.9386 64.9554 48.2124C62.6434 48.7327 60.3313 48.7874 58.0193 48.2672C55.2257 47.6373 53.3568 45.0633 52.7788 41.0927C52.2778 37.6424 52.7402 34.4112 54.0889 31.4812C55.2835 28.8524 57.1138 27.757 59.2139 27.3463C60.8323 27.0451 62.4314 27.1546 64.0113 27.7844C66.3811 28.7155 67.9032 31.2895 68.1729 34.7398C68.1922 34.9315 68.2115 35.0958 68.2115 35.2875C68.3463 35.2601 68.4041 35.2601 68.4619 35.2601ZM95.9363 32.7408C92.1215 31.4812 90.2141 34.7398 90.2719 38.9842C90.3104 41.3392 91.582 42.9548 93.0656 42.6536C94.2794 42.4071 94.9537 41.257 95.3583 39.7236C95.9171 37.5055 95.8593 35.1232 95.9363 32.7408ZM62.8938 35.5339C63.0865 34.1921 62.8168 32.9325 62.1617 32.3574C61.3332 31.6455 60.4662 31.6729 59.6377 32.3848C58.8285 33.0968 58.4817 34.1921 58.4239 35.5339C59.9653 35.5339 61.4296 35.5339 62.8938 35.5339Z" fill="#FDFCFD"/>
<path d="M110.565 27.1982C112.896 27.253 115.189 27.965 117.019 30.539C118.58 32.7571 119.042 35.5228 118.888 38.5349C118.599 43.9842 116.094 47.681 112.183 48.4477C110.083 48.8585 108.021 48.6668 106.037 47.4619C103.34 45.8463 101.779 42.04 101.875 37.9051C102.029 31.8534 105.054 28.0197 109.351 27.3078C109.717 27.253 110.064 27.253 110.565 27.1982ZM107.559 38.5076C107.578 38.7814 107.578 39.2195 107.636 39.6577C107.848 41.4376 108.715 42.6972 109.852 42.9163C111.104 43.1353 112.202 42.3138 112.761 40.6982C113.262 39.2469 113.358 37.6861 113.127 36.1252C112.934 34.7013 112.356 33.6607 111.335 33.3047C110.295 32.9487 109.332 33.1678 108.561 34.3179C107.79 35.4406 107.617 36.8372 107.559 38.5076Z" fill="#FDFCFD"/>
<path d="M124.484 48.6443C122.596 48.6443 120.746 48.6443 118.916 48.6443C119.109 41.8807 119.321 35.1444 119.513 28.3533C121.17 28.3533 122.962 28.3533 124.792 28.3533C124.792 28.9831 124.792 29.5855 124.792 30.2975C125.139 29.8594 125.39 29.476 125.679 29.1474C126.7 27.9426 127.914 27.3401 129.147 27.9152C130.283 28.4355 131.382 28.2438 132.48 28.2438C135.293 28.2985 138.125 28.2711 140.938 28.2711C141.15 28.2711 141.362 28.2711 141.497 28.2711C141.497 29.9963 141.458 31.6119 141.516 33.2549C141.535 34.2681 141.285 34.9253 140.765 35.6099C138.934 37.9375 137.162 40.3746 135.37 42.7569C135.293 42.8665 135.216 43.0034 135.062 43.2224C137.142 43.2224 139.127 43.2224 141.208 43.2224C141.111 45.0845 141.034 46.837 140.938 48.617C136.776 48.617 132.672 48.617 128.569 48.617C128.569 46.6727 128.549 44.7833 128.588 42.8938C128.588 42.6474 128.8 42.4009 128.954 42.1819C130.919 39.4983 132.904 36.7874 134.869 34.1038C134.927 34.0216 134.985 33.9121 135.1 33.7204C134.907 33.693 134.773 33.6383 134.657 33.6383C133.212 33.693 131.786 33.7204 130.341 33.83C130.091 33.8573 129.84 34.1312 129.609 34.2955C129.628 34.3776 129.648 34.4598 129.667 34.5419C129.243 34.4872 128.819 34.3776 128.395 34.3502C126.488 34.2955 125.101 35.7194 124.889 38.403C124.638 41.4699 124.638 44.5916 124.542 47.6859C124.484 47.9871 124.484 48.2884 124.484 48.6443Z" fill="#FDFCFD"/>
<path d="M147.147 38.6946C147.031 41.0496 147.705 42.4187 149.285 43.0759C150.807 43.7057 152.291 43.2676 153.774 42.8295C154.468 42.6104 155.142 42.3366 155.874 42.0627C155.662 43.9248 155.451 45.7047 155.219 47.4846C155.2 47.6763 155.007 47.8954 154.873 47.9228C152.156 48.7169 149.401 48.9359 146.665 48.1692C143.64 47.2929 141.829 44.2808 141.559 39.8721C141.386 37.1611 141.752 34.5871 142.696 32.2047C143.871 29.1652 145.798 27.796 148.11 27.3579C149.69 27.0567 151.25 27.1388 152.792 27.7139C155.855 28.8366 157.551 32.6976 157.108 37.435C157.088 37.5445 157.069 37.654 157.069 37.7635C157.108 38.5303 156.857 38.722 156.318 38.722C153.485 38.6946 150.653 38.6946 147.802 38.6946C147.628 38.6946 147.416 38.6946 147.147 38.6946ZM151.79 35.5455C151.983 33.3822 151.289 32.0404 149.96 31.9035C148.515 31.7666 147.339 33.3822 147.339 35.5455C148.823 35.5455 150.287 35.5455 151.79 35.5455Z" fill="#FDFCFD"/>
</svg>
