<svg width="600" height="551" viewBox="0 0 600 551" fill="none" xmlns="http://www.w3.org/2000/svg">
<path d="M310.715 225.861L230.732 162.443L231.564 161.553L310.523 224.154L406.182 110.693L443.826 135.963L520.688 42.0088L521.711 42.7203L444.082 137.599L406.425 112.329L310.715 225.861Z" fill="#EBEBEB"/>
<path d="M33.2516 327.75C33.2516 328.545 32.9973 329.322 32.521 329.983C32.0447 330.644 31.3677 331.159 30.5756 331.464C29.7836 331.768 28.912 331.847 28.0711 331.692C27.2303 331.537 26.4579 331.154 25.8517 330.592C25.2454 330.03 24.8326 329.314 24.6653 328.534C24.4981 327.754 24.5839 326.946 24.912 326.211C25.2401 325.477 25.7957 324.849 26.5085 324.407C27.2214 323.965 28.0595 323.729 28.9168 323.729C30.0664 323.729 31.169 324.153 31.9819 324.907C32.7949 325.661 33.2516 326.683 33.2516 327.75Z" fill="#EBEBEB"/>
<path d="M231.142 169.937C235.867 169.937 239.697 166.385 239.697 162.004C239.697 157.623 235.867 154.071 231.142 154.071C226.418 154.071 222.588 157.623 222.588 162.004C222.588 166.385 226.418 169.937 231.142 169.937Z" fill="#EBEBEB"/>
<path d="M29.3896 328.14L28.4434 327.346L121.698 231.815L142.771 248.808L226.807 164.969L227.74 165.775L142.861 250.456L121.801 233.475L29.3896 328.14Z" fill="#EBEBEB"/>
<path d="M521.597 49.2431C527.756 49.2431 532.748 44.6134 532.748 38.9025C532.748 33.1916 527.756 28.562 521.597 28.562C515.439 28.562 510.447 33.1916 510.447 38.9025C510.447 44.6134 515.439 49.2431 521.597 49.2431Z" fill="#EBEBEB"/>
<path d="M527.045 35.3687C525.599 37.3069 523.969 39.1206 522.173 40.7879L520.332 42.6379L520.14 42.8276L519.923 42.6734C518.556 41.8295 517.291 40.8515 516.15 39.7563C517.614 40.4417 518.998 41.2642 520.281 42.2109H519.871L521.674 40.3373C523.309 38.5422 525.105 36.88 527.045 35.3687Z" fill="white"/>
<path d="M160.992 143.92C162.079 136.52 150.84 130.449 142.387 129.808C138.36 129.512 134.178 130.081 130.355 128.848C122.082 126.18 118.847 116.266 110.714 113.112C104.679 110.74 97.7228 112.851 91.8792 115.578C86.0356 118.306 80.2431 121.745 73.709 122.136C68.0316 122.468 61.8556 120.511 56.8814 123.097C53.1732 125.006 51.2296 129.026 47.8155 131.303C44.4014 133.579 40.1434 134.077 35.9748 134.291C31.8063 134.504 27.5355 134.54 23.7506 136.141C19.9656 137.742 16.8584 141.442 17.6384 145.224L160.992 143.92Z" fill="#EBEBEB"/>
<path d="M462.112 20.0948C462.79 15.4819 455.783 11.6872 450.515 11.2959C447.957 11.1062 445.4 11.4619 443.009 10.6911C437.894 9.03097 435.784 2.85274 430.746 0.872388C426.987 -0.598053 422.652 0.718228 419.008 2.41398C415.363 4.10973 411.745 6.26796 407.678 6.50512C404.124 6.71858 400.275 5.49716 397.168 7.10991C394.866 8.29574 393.651 10.7741 391.516 12.2327C389.299 13.504 386.73 14.147 384.125 14.0826C381.511 14.0366 378.91 14.4386 376.453 15.2685C374.1 16.2646 372.156 18.577 372.617 20.9368L462.112 20.0948Z" fill="#F5F5F5"/>
<path d="M556.402 124.401C556.772 121.923 553 119.895 550.162 119.658C548.805 119.704 547.448 119.592 546.121 119.326C543.346 118.436 542.285 115.104 539.536 114.049C537.515 113.254 535.175 113.966 533.219 114.879C531.263 115.792 529.319 116.942 527.12 117.073C525.214 117.191 523.143 116.539 521.481 117.405C520.202 118.045 519.588 119.373 518.437 120.156C517.245 120.84 515.862 121.186 514.461 121.152C513.066 121.12 511.678 121.333 510.369 121.78C509.718 122.014 509.166 122.438 508.797 122.988C508.428 123.537 508.262 124.183 508.323 124.828L556.402 124.401Z" fill="#F5F5F5"/>
<path d="M131.379 60.5442C131.737 58.0658 127.965 56.0262 125.139 55.8009C123.783 55.8467 122.425 55.7352 121.099 55.4688C118.324 54.5795 117.263 51.2472 114.514 50.1918C112.48 49.3973 110.153 50.1088 108.197 51.0219C106.24 51.935 104.361 53.0853 102.097 53.2157C100.192 53.3343 98.1207 52.6821 96.4584 53.5359C95.1797 54.1881 94.5659 55.5163 93.4151 56.2989C92.2216 56.9812 90.84 57.3272 89.4384 57.295C88.0438 57.2622 86.6553 57.4755 85.3466 57.9235C84.6912 58.1598 84.1361 58.5869 83.7649 59.1408C83.3937 59.6946 83.2263 60.3452 83.2879 60.9948L131.379 60.5442Z" fill="#FAFAFA"/>
<path d="M156.748 313.306L182.117 261.034L208.177 246.519L224.365 213.849L270.858 223.941L305.536 322.591L251.857 347.055L208.177 371.756L156.748 313.306Z" fill="#F5F5F5"/>
<path d="M600.402 464.797L554.51 379.843L533.271 350.363L508.234 242.985L478.083 219.731L447.79 258.864L406.412 268.422L368.256 302.265L445.054 377.839L490.32 422.106L525.675 483.343L593.536 542.837C592.845 542.256 600.402 464.797 600.402 464.797Z" fill="#EBEBEB"/>
<path d="M0.402344 550.236L5.08235 492.58L30.0808 456.543L46.448 387.954L76.2031 371.755L112.965 314.42L147.976 292.446L220.618 359.067L268.569 311.171L305.536 322.59L290.307 340.153L251.857 347.054L176.12 408.303L117.224 438.411L101.521 464.713L67.4441 469.338L0.402344 550.236Z" fill="#EBEBEB"/>
<path d="M175.583 367.617C173.525 370.332 169.522 369.431 167.668 367.771C165.814 366.111 165.034 363.703 164.318 361.403C162.694 356.15 161.045 350.647 162.259 345.299C162.55 343.674 163.32 342.156 164.484 340.912C165.07 340.3 165.819 339.842 166.657 339.584C167.494 339.326 168.39 339.276 169.254 339.441C171.274 339.939 172.527 341.813 173.435 343.509C176.099 348.65 177.496 354.276 177.527 359.98C177.712 362.648 177.036 365.307 175.583 367.617Z" fill="#BA68C8"/>
<g opacity="0.2">
<path d="M175.583 367.617C173.525 370.332 169.522 369.431 167.668 367.771C165.814 366.111 165.034 363.703 164.318 361.403C162.694 356.15 161.045 350.647 162.259 345.299C162.55 343.674 163.32 342.156 164.484 340.912C165.07 340.3 165.819 339.842 166.657 339.584C167.494 339.326 168.39 339.276 169.254 339.441C171.274 339.939 172.527 341.813 173.435 343.509C176.099 348.65 177.496 354.276 177.527 359.98C177.712 362.648 177.036 365.307 175.583 367.617Z" fill="black"/>
</g>
<path d="M167.873 381.408C164.425 379.908 160.548 379.472 156.813 380.163C154.771 380.332 152.849 381.129 151.353 382.428C149.984 383.827 149.729 386.282 151.353 387.48C152.362 388.115 153.578 388.405 154.792 388.298C157.72 388.298 160.956 387.788 163.296 389.413C164.574 390.35 165.508 391.891 167.132 392.354C167.93 392.513 168.762 392.432 169.507 392.123C170.252 391.814 170.871 391.292 171.275 390.634C172.038 389.279 172.208 387.703 171.748 386.235C171.55 385.207 171.096 384.236 170.424 383.398C169.752 382.56 168.878 381.879 167.873 381.408Z" fill="#BA68C8"/>
<path d="M181.223 371.518C180.17 370.237 179.469 368.737 179.179 367.149C178.89 365.56 179.021 363.93 179.56 362.399C180.694 359.341 182.711 356.629 185.391 354.561C188.436 352.048 191.98 350.11 195.825 348.857C197.313 348.297 198.915 348.046 200.518 348.122C201.319 348.163 202.096 348.386 202.783 348.77C203.47 349.155 204.044 349.689 204.456 350.327C205.543 352.272 204.456 354.62 203.357 356.541C201.353 359.93 199.061 363.166 196.503 366.218C194.457 368.672 192.104 371.103 188.971 372.206C185.839 373.309 182.578 373.19 180.928 371.174" fill="#BA68C8"/>
<path d="M175.724 408.706C175.618 408.318 175.553 407.921 175.532 407.521C175.443 406.619 175.315 405.481 175.174 404.141C174.993 402.477 174.72 400.822 174.356 399.184C173.881 397.19 173.231 395.234 172.412 393.338C171.618 391.44 170.533 389.659 169.19 388.049C168.109 386.729 166.719 385.654 165.124 384.907C164.045 384.409 162.888 384.073 161.697 383.911C161.265 383.891 160.837 383.831 160.418 383.733C160.869 383.689 161.323 383.689 161.773 383.733C163.009 383.813 164.218 384.102 165.341 384.586C167.019 385.318 168.49 386.402 169.637 387.753C171.037 389.389 172.162 391.212 172.975 393.16C173.801 395.081 174.447 397.065 174.906 399.089C175.252 400.747 175.491 402.422 175.622 404.105C175.737 405.54 175.775 406.702 175.801 407.509C175.808 407.909 175.782 408.31 175.724 408.706Z" fill="#263238"/>
<path d="M175.468 406.11C175.435 405.917 175.435 405.721 175.468 405.529V403.892C175.468 402.469 175.468 400.406 175.392 397.856C175.264 392.757 174.791 385.725 173.87 377.993C172.949 370.262 171.735 363.313 170.622 358.32C170.354 357.135 170.098 355.949 169.842 354.965C169.587 353.98 169.407 353.115 169.203 352.427C168.998 351.739 168.909 351.241 168.794 350.838C168.728 350.654 168.694 350.462 168.691 350.269C168.779 350.439 168.848 350.618 168.896 350.802C169.037 351.217 169.203 351.739 169.42 352.379C169.638 353.02 169.881 353.909 170.149 354.893C170.418 355.878 170.712 356.992 171.006 358.249C172.525 364.753 173.664 371.328 174.42 377.946C175.341 385.69 175.699 392.745 175.788 397.844C175.788 400.406 175.788 402.469 175.686 403.892C175.686 404.568 175.609 405.078 175.584 405.541C175.561 405.733 175.522 405.923 175.468 406.11Z" fill="#263238"/>
<path d="M175.43 392.508C175.385 391.936 175.385 391.361 175.43 390.789C175.43 389.686 175.66 388.097 175.993 386.14C176.402 383.856 176.948 381.596 177.629 379.369C178.438 376.632 179.46 373.953 180.685 371.353C182.799 366.569 185.832 362.182 189.636 358.403C190.296 357.756 191 357.15 191.746 356.589C192.066 356.328 192.36 356.079 192.654 355.877L193.472 355.356C193.96 355.009 194.478 354.7 195.019 354.431C193.222 355.739 191.514 357.149 189.905 358.652C186.221 362.461 183.263 366.824 181.158 371.554C179.952 374.139 178.927 376.793 178.09 379.499C177.284 381.99 176.811 384.243 176.351 386.199C175.89 388.156 175.75 389.757 175.622 390.8C175.604 391.373 175.54 391.944 175.43 392.508Z" fill="#263238"/>
<path d="M544.332 443.286C543.146 443.302 541.977 443.54 540.893 443.986C539.81 444.433 538.835 445.078 538.028 445.883C536.422 447.502 535.236 449.441 534.563 451.551C533.143 455.583 533.591 460.457 534.563 464.595C539.434 463.255 542.657 458.666 544.14 456.294C546.467 452.476 548.193 444.258 544.293 443.321" fill="#BA68C8"/>
<path d="M526.954 469.469C527.801 468.526 528.365 467.392 528.59 466.183C528.814 464.973 528.691 463.73 528.233 462.579C527.751 461.435 527.03 460.391 526.11 459.507C525.191 458.624 524.091 457.919 522.875 457.432C522.344 457.151 521.752 456.981 521.142 456.936C520.532 456.891 519.918 456.971 519.346 457.172C518.851 457.437 518.441 457.819 518.157 458.28C517.874 458.74 517.728 459.262 517.735 459.792C517.772 460.859 518.112 461.898 518.719 462.804C520.624 465.97 523.092 468.733 526.928 469.469" fill="#BA68C8"/>
<path d="M525.969 482.727C526.113 482.462 526.213 482.178 526.263 481.885C526.417 481.327 526.622 480.521 526.852 479.513C527.489 476.896 527.747 474.212 527.619 471.532C527.464 468.825 526.523 466.207 524.895 463.955C524.389 463.286 523.796 462.676 523.131 462.14C522.905 461.921 522.636 461.744 522.338 461.619C523.16 462.403 523.912 463.248 524.588 464.144C526.101 466.38 526.981 468.933 527.146 471.568C527.266 474.21 527.06 476.855 526.532 479.454C526.273 480.533 526.085 481.626 525.969 482.727Z" fill="#263238"/>
<path d="M542.248 449.404C541.94 449.803 541.674 450.227 541.455 450.673C540.969 451.515 540.291 452.725 539.473 454.231C537.836 457.243 535.637 461.452 533.361 466.148C531.085 470.844 529.115 475.149 527.76 478.291C527.07 479.857 526.481 481.126 526.187 482.015C525.974 482.463 525.803 482.927 525.676 483.402C525.952 482.986 526.184 482.545 526.366 482.086L528.093 478.422C529.537 475.315 531.545 471.046 533.834 466.35C536.123 461.654 538.258 457.432 539.805 454.373L541.634 450.744C541.874 450.312 542.079 449.864 542.248 449.404Z" fill="#263238"/>
<path d="M532.363 474.248C533.879 472.071 535.933 470.26 538.355 468.967C540.777 467.674 543.496 466.935 546.288 466.812C547.694 466.812 549.395 467.038 549.983 468.224C550.571 469.409 549.676 470.797 548.704 471.781C546.584 473.704 543.897 475.003 540.982 475.514C538.068 476.024 535.055 475.724 532.324 474.651" fill="#BA68C8"/>
<path d="M544.178 470.275C543.873 470.234 543.563 470.234 543.257 470.275C542.894 470.273 542.53 470.297 542.17 470.346C541.694 470.383 541.221 470.443 540.751 470.524C539.528 470.736 538.333 471.066 537.183 471.508C535.769 472.05 534.422 472.734 533.168 473.548C531.933 474.383 530.797 475.337 529.78 476.394C528.958 477.264 528.234 478.21 527.619 479.216C527.374 479.598 527.156 479.994 526.967 480.402C526.803 480.699 526.666 481.009 526.558 481.327C526.431 481.588 526.341 481.863 526.289 482.145C526.391 482.145 526.826 481.031 527.926 479.394C528.57 478.431 529.311 477.526 530.138 476.691C532.153 474.649 534.616 473.031 537.363 471.947C538.48 471.497 539.64 471.144 540.828 470.892C542.861 470.382 544.178 470.37 544.178 470.275Z" fill="#263238"/>
<path d="M433.969 496.103C433.722 496.123 433.474 496.123 433.227 496.103L431.092 496.162L423.151 496.257L396.299 496.352L396.554 496.245L391.849 501.558L371.518 524.373L365.29 531.239L363.577 533.089C363.389 533.316 363.174 533.522 362.938 533.706C363.096 533.459 363.275 533.225 363.475 533.006L365.098 531.085L371.147 524.1L391.337 501.166C392.948 499.352 394.534 497.609 396.043 495.854L396.145 495.747H396.299L423.151 495.854L431.092 495.949H433.227C433.48 495.974 433.729 496.026 433.969 496.103Z" fill="#263238"/>
<path d="M298.402 443.665L218.931 441.246L196.912 467.69L162.029 482.086L143.092 519.357L165.136 495.629L207.563 489.035L237.779 459.828L298.402 443.665Z" fill="#F5F5F5"/>
<path d="M0.402344 550.236C0.402344 550.236 0.773166 549.75 1.54038 548.813L4.9417 544.662L18.125 528.654C29.6332 514.72 46.3713 494.478 67.2651 469.219V469.148H67.3546L101.432 464.5L101.253 464.606C106.176 456.306 111.482 447.495 116.929 438.293H117.006L175.826 408.16L251.691 346.829H251.755H251.844L290.282 339.927L290.09 340.034L309.679 317.42L328.22 296.075L328.348 295.933H328.553L370.404 304.566H370.507L370.57 304.637L490.524 422.035C503.823 445.135 515.651 465.65 525.816 483.295L575.685 527.171L588.932 538.852L592.334 541.876C593.101 542.552 593.472 542.907 593.472 542.907L592.295 541.911L588.856 538.935L575.532 527.314L525.458 483.556L490.064 422.331L370.033 305.052L370.2 305.147L328.412 296.466L328.745 296.36L310.204 317.705L290.563 340.342L290.486 340.437H290.371L251.921 347.327L252.074 347.256L176.312 408.493L117.403 438.565L117.518 438.471L101.79 464.772V464.867H101.662L67.572 469.48L67.7126 469.397C46.7677 494.62 29.9785 514.815 18.4191 528.689L5.04399 544.734L1.59153 548.848C0.811525 549.773 0.402344 550.236 0.402344 550.236Z" fill="#263238"/>
<path d="M305.536 442.751L305.216 442.858L304.244 443.131L300.498 444.127L286.432 447.768L237.842 460.112L237.996 460.041C232.011 465.816 225.541 472.077 218.815 478.552L207.754 489.225L207.678 489.296H207.575L165.187 495.841L165.34 495.758L146.748 515.598L141.633 521.041L140.265 522.452C139.958 522.76 139.779 522.914 139.779 522.914C139.779 522.914 139.92 522.736 140.214 522.404C140.508 522.072 140.956 521.562 141.493 520.946C142.669 519.641 144.37 517.791 146.531 515.42L164.957 495.438L165.021 495.367H165.11L207.512 488.726L207.333 488.809C210.926 485.335 214.621 481.766 218.38 478.137L237.561 459.638H237.625H237.701L286.292 447.495L300.357 444.032L304.193 443.131L305.165 442.906L305.536 442.751Z" fill="#263238"/>
<path d="M401.527 417.577C401.527 417.743 384.239 417.885 362.911 417.885C341.582 417.885 324.281 417.743 324.281 417.577C324.281 417.411 341.569 417.269 362.911 417.269C384.252 417.269 401.527 417.446 401.527 417.577Z" fill="#263238"/>
<path d="M407.971 226.656C407.971 226.656 407.882 219.909 407.575 219.861L392.627 222.945C392.473 223.822 390.594 234.886 390.913 235.989L407.69 240.293C407.69 240.293 407.971 227.048 407.971 226.656Z" fill="#FFBE9D"/>
<path d="M407.985 239.262C407.985 239.262 407.985 239.144 408.061 238.966C408.24 237.448 408.061 230.855 407.269 230.582C406.476 230.309 403.867 230.772 403.688 231.649C403.509 232.527 404.097 239.95 404.097 239.95C404.097 239.95 404.264 241.136 406.386 241.397C407.691 241.563 407.985 239.262 407.985 239.262Z" fill="#FFBE9D"/>
<path d="M403.727 241.633C403.727 241.633 403.727 241.515 403.804 241.337C403.97 239.819 403.868 233.226 402.999 232.953C402.129 232.68 399.597 233.143 399.431 234.02C399.265 234.898 399.827 242.321 399.827 242.321C399.827 242.321 400.006 243.507 402.129 243.768C403.433 243.934 403.727 241.633 403.727 241.633Z" fill="#FFBE9D"/>
<path d="M399.56 242.819C399.56 242.819 399.56 242.7 399.623 242.511C399.802 241.005 399.7 234.411 398.831 234.127C397.961 233.842 395.429 234.328 395.263 235.194C395.097 236.06 395.66 243.495 395.66 243.495C395.66 243.495 395.839 244.681 397.948 244.954C399.265 245.12 399.56 242.819 399.56 242.819Z" fill="#FFBE9D"/>
<path d="M395.403 243.934C395.403 243.934 395.403 243.816 395.479 243.626C395.646 242.12 395.543 235.527 394.674 235.242C393.804 234.958 391.273 235.444 391.106 236.309C390.94 237.175 391.516 244.61 391.516 244.61C391.516 244.61 391.682 245.796 393.804 246.069C395.109 246.223 395.403 243.934 395.403 243.934Z" fill="#FFBE9D"/>
<path d="M403.663 233.569C403.912 234.624 404.023 235.703 403.996 236.783C404.111 237.842 404.073 238.911 403.881 239.961C403.632 238.906 403.521 237.827 403.548 236.747C403.431 235.688 403.47 234.619 403.663 233.569Z" fill="#EB996E"/>
<path d="M399.47 233.546C399.883 236.578 399.998 239.638 399.815 242.689C399.544 241.18 399.411 239.653 399.418 238.123C399.288 236.599 399.305 235.067 399.47 233.546Z" fill="#EB996E"/>
<g opacity="0.78">
<path d="M395.21 233.878C395.624 236.91 395.739 239.97 395.556 243.021C395.285 241.512 395.152 239.985 395.159 238.455C395.028 236.931 395.045 235.399 395.21 233.878Z" fill="#EB996E"/>
</g>
<path d="M392.538 223.312C392.538 223.312 386.618 235.776 387.488 236.546C388.603 237.317 389.803 237.977 391.068 238.515L392.538 223.312Z" fill="#FFBE9D"/>
<path d="M359.816 56.1089L355.481 102.724L330.303 100.862C330.15 98.135 330.303 87.5929 330.303 87.5929C330.303 87.5929 319.831 86.0751 319.703 76.363C319.639 71.6197 320.368 61.8958 321.135 53.1087C321.541 48.4239 323.911 44.073 327.735 40.9894C331.56 37.9058 336.535 36.3349 341.594 36.6137C344.185 36.7476 346.72 37.3628 349.05 38.4228C351.379 39.4827 353.455 40.9659 355.155 42.7842C356.854 44.6026 358.143 46.719 358.943 49.0079C359.744 51.2969 360.041 53.7116 359.816 56.1089Z" fill="#FFBE9D"/>
<path d="M330.342 87.4501C335.174 87.5505 339.929 86.3119 343.998 83.8926C343.998 83.8926 340.776 90.889 330.316 90.0115L330.342 87.4501Z" fill="#EB996E"/>
<path d="M325.24 59.9156C325.24 60.2779 325.39 60.6264 325.658 60.8891C325.927 61.1518 326.295 61.3085 326.685 61.3268C327.07 61.3496 327.449 61.2301 327.739 60.9945C328.029 60.759 328.206 60.4265 328.232 60.0698C328.236 59.7078 328.087 59.3589 327.817 59.0975C327.547 58.8361 327.178 58.6829 326.787 58.6705C326.597 58.656 326.406 58.6768 326.224 58.7319C326.043 58.7869 325.875 58.875 325.731 58.991C325.587 59.107 325.469 59.2486 325.385 59.4074C325.301 59.5661 325.252 59.739 325.24 59.9156Z" fill="#263238"/>
<path d="M323.426 58.0061C323.605 58.1959 324.705 57.4132 326.354 57.4132C328.004 57.4132 329.142 58.1722 329.321 57.9824C329.5 57.7927 329.218 57.5792 328.694 57.2353C328.008 56.784 327.188 56.5415 326.348 56.5415C325.507 56.5415 324.687 56.784 324.001 57.2353C323.503 57.603 323.298 57.9231 323.426 58.0061Z" fill="#263238"/>
<path d="M340.701 59.9274C340.701 60.2885 340.851 60.6357 341.12 60.8965C341.39 61.1573 341.757 61.3114 342.146 61.3267C342.336 61.3396 342.527 61.3171 342.708 61.2606C342.889 61.204 343.055 61.1146 343.198 60.9975C343.341 60.8804 343.458 60.7381 343.54 60.5787C343.623 60.4194 343.671 60.2464 343.681 60.0697C343.687 59.7089 343.541 59.36 343.273 59.0982C343.005 58.8365 342.637 58.6828 342.248 58.6704C342.057 58.6559 341.865 58.6772 341.683 58.733C341.5 58.7887 341.332 58.8779 341.188 58.9951C341.044 59.1124 340.926 59.2553 340.842 59.4155C340.759 59.5756 340.711 59.7497 340.701 59.9274Z" fill="#263238"/>
<path d="M339.244 58.2674C339.436 58.4453 340.523 57.6626 342.172 57.6745C343.822 57.6863 344.96 58.4216 345.139 58.2437C345.318 58.0658 345.036 57.8286 344.525 57.4847C343.825 57.0402 342.995 56.8044 342.146 56.8088C341.309 56.8002 340.492 57.0459 339.819 57.5085C339.321 57.8761 339.154 58.2674 339.244 58.2674Z" fill="#263238"/>
<path d="M333.398 69.3551C332.567 69.1166 331.709 68.9693 330.841 68.9163C330.432 68.9163 330.035 68.8096 329.972 68.5487C329.922 68.1369 330.016 67.7212 330.24 67.3628C330.636 66.4379 331.033 65.4655 331.519 64.4575C332.644 61.9994 333.555 59.4614 334.242 56.8682C332.899 59.2335 331.766 61.6963 330.854 64.2322C330.457 65.252 330.061 66.2244 329.69 67.1494C329.433 67.6091 329.36 68.1388 329.486 68.6436C329.542 68.78 329.633 68.9018 329.751 68.9988C329.869 69.0958 330.011 69.1651 330.163 69.2009C330.387 69.2638 330.62 69.2958 330.854 69.2958C331.696 69.4137 332.551 69.4336 333.398 69.3551Z" fill="#263238"/>
<path d="M338.143 70.3867C337.875 70.3867 337.875 71.9995 336.379 73.1497C334.883 74.3 333.029 74.1221 333.016 74.3356C333.003 74.549 333.425 74.6439 334.218 74.6676C335.242 74.6812 336.239 74.3577 337.031 73.7545C337.792 73.1829 338.278 72.3563 338.386 71.454C338.45 70.778 338.259 70.3867 338.143 70.3867Z" fill="#263238"/>
<path d="M338.834 52.4326C338.988 52.8477 340.599 52.6461 342.492 52.8595C344.384 53.073 345.906 53.5473 346.149 53.1915C346.392 52.8358 345.995 52.6342 345.381 52.2429C344.566 51.7527 343.637 51.448 342.671 51.3535C341.703 51.2527 340.723 51.3581 339.806 51.6618C339.116 51.9227 338.758 52.2429 338.834 52.4326Z" fill="#263238"/>
<path d="M324.014 53.6894C324.296 54.0333 325.408 53.6894 326.738 53.6894C328.068 53.6894 329.206 53.9147 329.462 53.5589C329.717 53.2032 329.398 53.049 328.912 52.7288C328.247 52.3449 327.476 52.1514 326.693 52.1725C325.911 52.1936 325.152 52.4283 324.513 52.8474C324.053 53.1795 323.886 53.5233 324.014 53.6894Z" fill="#263238"/>
<path d="M367.221 43.67C367.286 42.7628 366.985 41.8656 366.379 41.1516C365.772 40.4376 364.901 39.9576 363.935 39.8041C364.348 38.9328 364.451 37.962 364.23 37.0326C364.008 36.1031 363.474 35.2631 362.703 34.6343C361.932 34.0055 360.966 33.6206 359.944 33.5352C358.921 33.4499 357.896 33.6685 357.017 34.1595C356.721 33.1038 356.111 32.1464 355.257 31.3964C354.403 30.6465 353.339 30.1342 352.186 29.9179C351.033 29.7016 349.837 29.79 348.736 30.173C347.635 30.556 346.672 31.2183 345.956 32.0843C345.218 31.2732 344.267 30.6523 343.195 30.2819C342.123 29.9114 340.966 29.8038 339.835 29.9696C338.705 30.1353 337.64 30.5688 336.743 31.228C335.847 31.8873 335.149 32.7499 334.717 33.7326C333.93 33.1165 333.012 32.6616 332.023 32.3976C331.034 32.1337 329.996 32.0667 328.977 32.2011C327.958 32.3354 326.981 32.6681 326.11 33.1773C325.239 33.6865 324.494 34.3607 323.924 35.1556C322.777 34.7732 321.563 34.5922 320.344 34.622C319.558 34.6406 318.792 34.8567 318.128 35.2472C317.463 35.6377 316.926 36.188 316.572 36.8395C316.344 37.3972 316.326 38.01 316.521 38.5783C316.716 39.1466 317.113 39.6371 317.646 39.9701C317.188 39.8334 316.705 39.7861 316.226 39.8315C315.748 39.8768 315.285 40.0136 314.866 40.2334C314.448 40.4531 314.083 40.751 313.795 41.1082C313.506 41.4653 313.301 41.874 313.192 42.3085C313.083 42.7429 313.072 43.1936 313.161 43.632C313.249 44.0705 313.434 44.4873 313.705 44.8559C313.976 45.2246 314.326 45.5372 314.734 45.7739C315.141 46.0107 315.597 46.1664 316.073 46.2314C315.738 46.3901 315.458 46.6336 315.266 46.9337C315.073 47.2338 314.977 47.5782 314.986 47.9271C315.129 48.5063 315.429 49.0417 315.859 49.482C316.289 49.9222 316.834 50.2525 317.441 50.4411C320.537 51.4791 323.935 51.4284 326.993 50.2988C330.088 49.3383 332.952 47.8323 336.021 46.7413C339.09 45.6503 344.217 43.836 347.299 44.8439C347.751 44.9943 348.181 45.1976 348.578 45.4487C350.234 46.6728 351.322 48.4376 351.621 50.3818C351.627 50.4449 351.627 50.5084 351.621 50.5716C352.03 53.3464 351.966 56.1569 352.401 58.8724C352.685 61.6776 353.978 64.3128 356.071 66.3551C356.979 67.1377 358.628 67.6832 359.331 66.7583C359.59 66.3798 359.72 65.9374 359.702 65.4894C360.111 60.663 361.237 56.228 361.838 51.5084C362.607 50.3162 363.564 49.2371 364.676 48.3066C366.092 47.0905 366.994 45.4468 367.221 43.67Z" fill="#263238"/>
<path d="M335.995 38.7834C335.813 38.3745 335.764 37.9251 335.855 37.4908C335.967 36.2716 336.564 35.1347 337.53 34.3009C338.262 33.6877 339.161 33.2702 340.129 33.0927C341.097 32.9152 342.099 32.9844 343.028 33.2929C343.593 33.4648 344.112 33.7447 344.552 34.1144C344.993 34.4841 345.345 34.9355 345.585 35.4393C345.828 36.0111 345.855 36.6421 345.662 37.2299C345.568 37.5445 345.397 37.8345 345.162 38.0773C344.927 38.3201 344.634 38.509 344.307 38.6292C343.975 38.7511 343.616 38.7954 343.261 38.7582C342.907 38.721 342.568 38.6034 342.274 38.4158C342 38.2133 341.788 37.9484 341.658 37.6469C341.528 37.3455 341.484 37.0179 341.532 36.6963C341.594 36.1023 341.896 35.5518 342.376 35.1547C342.818 34.791 343.342 34.5236 343.91 34.372C344.847 34.107 345.837 34.0451 346.804 34.1911C347.77 34.3371 348.688 34.687 349.485 35.214C350.106 35.6296 350.578 36.2078 350.841 36.8742C351.026 37.3782 351.057 37.9201 350.93 38.4395C350.687 39.2933 350.163 39.5542 350.163 39.5304C350.416 39.1701 350.59 38.7672 350.675 38.3446C350.748 37.8717 350.686 37.3891 350.496 36.9453C350.222 36.3688 349.779 35.8755 349.217 35.5223C348.47 35.0676 347.625 34.7721 346.74 34.6573C345.856 34.5424 344.955 34.6111 344.102 34.8582C343.625 34.9634 343.19 35.1938 342.85 35.5218C342.51 35.8498 342.279 36.2616 342.184 36.7081C342.147 36.929 342.174 37.155 342.262 37.3632C342.349 37.5715 342.494 37.7546 342.683 37.894C342.886 38.0205 343.119 38.0987 343.362 38.1214C343.605 38.1442 343.851 38.1109 344.077 38.0244C344.529 37.8146 344.878 37.4511 345.049 37.0095C345.22 36.5679 345.202 36.082 344.997 35.6527C344.788 35.2239 344.486 34.8395 344.11 34.5233C343.734 34.2071 343.291 33.966 342.811 33.8147C341.977 33.5347 341.078 33.4607 340.204 33.6C339.33 33.7393 338.509 34.0871 337.824 34.6092C336.905 35.3663 336.292 36.391 336.085 37.5145C335.97 38.3209 336.085 38.7834 335.995 38.7834Z" fill="#455A64"/>
<path d="M348.719 32.5817C349.021 32.4747 349.341 32.4184 349.665 32.4157C350.543 32.3373 351.428 32.3612 352.299 32.4868C353.641 32.662 354.883 33.246 355.828 34.147C356.429 34.7222 356.808 35.4649 356.908 36.2603C357.007 37.0556 356.821 37.8591 356.378 38.5465C356.222 38.7715 356.033 38.9751 355.815 39.1512L355.47 38.6295C355.882 38.4931 356.324 38.45 356.757 38.5036C357.191 38.5573 357.604 38.7061 357.964 38.9378C358.639 39.3345 359.121 39.9599 359.306 40.681C359.435 41.264 359.429 41.8659 359.288 42.4465C359.147 43.0271 358.874 43.5733 358.488 44.0488C357.996 44.6618 357.39 45.188 356.698 45.6022C356.212 45.8987 355.931 46.0172 355.905 45.9817C355.879 45.9461 356.122 45.7682 356.544 45.4243C357.147 44.9573 357.676 44.4145 358.117 43.8116C358.43 43.377 358.644 42.8881 358.748 42.3745C358.851 41.8609 358.841 41.3332 358.718 40.8233C358.56 40.2457 358.166 39.7479 357.618 39.4358C357.343 39.2618 357.027 39.1498 356.696 39.1086C356.365 39.0674 356.029 39.0983 355.713 39.1987L354 39.839L355.381 38.6532C355.552 38.5142 355.703 38.3547 355.828 38.1788C356.214 37.5933 356.363 36.9002 356.25 36.2222C356.149 35.58 355.841 34.9809 355.368 34.5027C354.523 33.6724 353.418 33.1085 352.21 32.89C350.151 32.5342 348.719 32.7121 348.719 32.5817Z" fill="#455A64"/>
<path d="M363.883 42.8511C363.959 42.8511 364.151 43.1831 364.151 43.776C364.139 44.5756 363.815 45.3441 363.239 45.9393C362.663 46.5344 361.874 46.916 361.018 47.0134C360.379 47.0134 359.995 46.9422 360.008 46.8592C361.024 46.6305 361.963 46.1745 362.745 45.5311C363.359 44.74 363.751 43.8186 363.883 42.8511Z" fill="#455A64"/>
<path d="M319.141 37.799C319.405 37.4852 319.741 37.23 320.125 37.0519C321.409 36.3918 322.888 36.1323 324.343 36.3117C325.799 36.491 327.153 37.0998 328.207 38.048C328.605 38.3904 328.924 38.8048 329.144 39.2656C329.364 39.7264 329.48 40.2241 329.485 40.728C329.449 41.3152 329.166 41.8659 328.698 42.2625C328.23 42.6591 327.613 42.8702 326.979 42.8507C326.65 42.8156 326.338 42.6991 326.075 42.5134C325.812 42.3276 325.607 42.0796 325.483 41.7953C325.239 41.2833 325.198 40.7078 325.368 40.1707C325.532 39.68 325.824 39.2348 326.219 38.8747C326.614 38.5146 327.099 38.2509 327.631 38.1073C328.546 37.8099 329.542 37.8099 330.457 38.1073C331.226 38.3695 331.931 38.7728 332.529 39.2932C333.369 40.0333 334.069 40.8992 334.6 41.8546C334.825 42.1842 334.993 42.5442 335.099 42.9218C334.825 42.627 334.581 42.3095 334.37 41.9732C333.784 41.0884 333.06 40.2891 332.222 39.6015C331.646 39.0979 330.939 38.7407 330.171 38.5641C329.403 38.3875 328.599 38.3977 327.836 38.5935C327.408 38.714 327.018 38.9275 326.698 39.2163C326.377 39.5051 326.136 39.8608 325.994 40.2537C325.751 41.0363 326.148 42.1036 327.043 42.1629C327.49 42.1551 327.917 41.9926 328.241 41.7073C328.565 41.422 328.763 41.0347 328.795 40.6213C328.791 40.2027 328.698 39.7889 328.52 39.4041C328.342 39.0193 328.083 38.6712 327.759 38.3801C326.613 37.3125 325.073 36.6893 323.45 36.6369C322.347 36.5889 321.247 36.784 320.24 37.2061C319.887 37.4236 319.519 37.6216 319.141 37.799Z" fill="#455A64"/>
<path d="M356.288 60.4969C356.467 60.4257 363.487 58.5284 363.257 65.1691C363.027 71.8098 355.892 70.2208 355.879 70.031C355.866 69.8413 356.288 60.4969 356.288 60.4969Z" fill="#FFBE9D"/>
<path d="M358.155 67.5877C358.155 67.5877 358.283 67.6707 358.488 67.7656C358.788 67.8747 359.121 67.8747 359.421 67.7656C359.891 67.5058 360.278 67.1352 360.543 66.6915C360.808 66.2478 360.942 65.7469 360.93 65.2398C360.966 64.6702 360.87 64.1002 360.649 63.5677C360.586 63.3598 360.471 63.1685 360.313 63.0098C360.156 62.851 359.959 62.7293 359.741 62.6546C359.598 62.6118 359.443 62.6182 359.304 62.6727C359.166 62.7271 359.053 62.8259 358.987 62.9511C358.884 63.129 358.923 63.2594 358.884 63.2713C358.846 63.2831 358.744 63.1646 358.807 62.8918C358.853 62.7272 358.957 62.5812 359.102 62.4768C359.304 62.3495 359.551 62.2986 359.792 62.3345C360.086 62.3964 360.357 62.527 360.581 62.7138C360.805 62.9006 360.974 63.1374 361.071 63.4017C361.35 63.9864 361.473 64.6252 361.429 65.2635C361.445 65.8555 361.272 66.4387 360.93 66.9391C360.589 67.4394 360.095 67.8344 359.511 68.0739C359.319 68.1186 359.118 68.1237 358.924 68.0889C358.73 68.054 358.546 67.9801 358.386 67.8723C358.168 67.7538 358.13 67.5996 358.155 67.5877Z" fill="#EB996E"/>
<path d="M311.88 383.282L316.534 403.157C316.534 403.157 296.318 414.209 296.791 417.956L338.643 410.983L332.761 379.748L311.88 383.282Z" fill="#263238"/>
<path d="M338.641 410.984L337.912 407.853L298.043 415.715C298.043 415.715 296.329 416.782 296.764 417.956L338.641 410.984Z" fill="#455A64"/>
<path d="M359.498 385.464L360.188 405.789C360.188 405.789 338.144 413.272 337.875 417.031L380.417 417.209L380.737 385.499L359.498 385.464Z" fill="#263238"/>
<g opacity="0.6">
<path d="M380.417 417.209L380.315 414.007L339.563 415.039C339.563 415.039 337.67 415.798 337.875 417.031L380.417 417.209Z" fill="#455A64"/>
</g>
<path d="M309.578 400.322C309.578 400.322 287.84 301.126 287.764 299.134L326.713 280.019L341.801 396.432L309.578 400.322Z" fill="#263238"/>
<path d="M358.64 403.655L328.514 231.708V194.639L369.662 198.196C370.186 199.643 383.651 403.904 383.651 403.904L379.406 403.678H358.64" fill="#263238"/>
<path d="M304.834 192.006L287.764 299.135L325.933 290.549L341.494 195.492L304.834 192.006Z" fill="#263238"/>
<path d="M340.15 201.089C340.15 201.089 340.15 201.267 340.15 201.611L340.329 203.153C340.496 204.516 340.739 206.509 341.058 209.082C341.71 214.205 342.695 221.616 343.974 230.771C346.531 249.068 350.367 274.303 354.536 302.194C356.607 316.151 358.512 329.468 360.136 341.552C360.558 344.576 360.891 347.541 361.415 350.398C361.939 353.256 362.348 356.031 362.783 358.699C363.666 364.059 364.484 369.064 365.226 373.617C366.709 382.748 367.872 390.136 368.64 395.247C369.023 397.796 369.305 399.777 369.471 401.176C369.56 401.852 369.611 402.362 369.637 402.718C369.65 402.848 369.65 402.979 369.637 403.109C369.637 403.216 369.573 403.109 369.573 403.109C369.573 403.109 369.663 403.109 369.65 403.109C369.666 402.975 369.666 402.84 369.65 402.706C369.65 402.362 369.65 401.84 369.535 401.164C369.407 399.812 369.151 397.82 368.806 395.235C368.103 390.124 366.99 382.724 365.558 373.593C364.829 369.028 364.036 364.024 363.18 358.664C362.745 355.984 362.293 353.217 361.824 350.363C361.377 347.505 361.057 344.54 360.635 341.516C359.049 329.409 357.157 316.104 355.085 302.158C350.93 274.268 347.004 249.033 344.37 230.747C343.091 221.616 342.017 214.217 341.288 209.082L340.457 203.153C340.368 202.489 340.291 201.967 340.24 201.623C340.189 201.279 340.15 201.089 340.15 201.089Z" fill="#455A64"/>
<path d="M317.185 399.41C317.185 399.41 317.185 399.232 317.121 398.9L316.904 397.418C316.661 396.101 316.316 394.18 315.855 391.714C314.922 386.745 313.566 379.583 311.891 370.748L298.619 301.59C298.226 299.944 298.118 298.251 298.299 296.574C298.529 294.914 298.823 293.242 299.092 291.593C299.646 288.297 300.187 285.047 300.716 281.846C301.803 275.454 302.864 269.299 303.925 263.441C306.022 251.713 308.055 241.183 309.871 232.349C311.687 223.514 313.272 216.399 314.487 211.502C315.063 209.047 315.587 207.15 315.906 205.869C316.06 205.24 316.175 204.683 316.265 204.398C316.354 204.114 316.38 203.9 316.38 203.9C316.38 203.9 316.316 204.055 316.213 204.387C316.111 204.719 315.983 205.217 315.804 205.845C315.446 207.126 314.896 209.011 314.295 211.454C313.017 216.352 311.367 223.467 309.5 232.289C307.633 241.112 305.575 251.642 303.452 263.358C302.378 269.228 301.304 275.383 300.204 281.774C299.667 284.964 299.13 288.225 298.567 291.522C298.312 293.182 298.018 294.819 297.775 296.526C297.598 298.251 297.71 299.991 298.107 301.685C303.35 328.663 308.094 353.103 311.533 370.807C313.272 379.63 314.679 386.781 315.651 391.749L316.802 397.441C316.942 398.07 317.045 398.568 317.121 398.912C317.198 399.256 317.185 399.41 317.185 399.41Z" fill="#455A64"/>
<path d="M328.514 230.499C328.373 230.499 330.15 241.634 332.49 255.306C334.83 268.979 336.838 280.019 336.979 280.019C337.119 280.019 335.342 268.884 333.002 255.211C330.662 241.539 328.654 230.475 328.514 230.499Z" fill="#455A64"/>
<path d="M358.27 403.346C358.591 403.429 358.921 403.481 359.254 403.5C359.893 403.572 360.827 403.655 361.965 403.738C364.254 403.904 367.425 404.058 370.916 404.117C374.407 404.176 377.591 404.117 379.867 404.01C381.017 404.01 381.951 403.915 382.59 403.856C382.924 403.859 383.256 403.815 383.575 403.726C382.342 403.63 381.103 403.61 379.867 403.666C377.565 403.666 374.407 403.666 370.916 403.666C367.425 403.666 364.254 403.5 361.965 403.429C360.737 403.323 359.502 403.296 358.27 403.346Z" fill="#455A64"/>
<path d="M309.578 400.323C310.005 400.347 310.434 400.327 310.857 400.263L314.322 399.931C317.25 399.611 321.278 399.16 325.728 398.615C330.178 398.069 334.193 397.571 337.096 397.18L340.548 396.694C340.983 396.66 341.411 396.58 341.827 396.457C341.402 396.415 340.973 396.415 340.548 396.457L337.083 396.789C334.155 397.097 330.127 397.559 325.677 398.093C321.227 398.627 317.212 399.137 314.296 399.54L310.857 400.026C310.42 400.082 309.992 400.182 309.578 400.323Z" fill="#455A64"/>
<path d="M116.15 25.5612C116.15 25.5612 133.055 19.4423 144.601 22.5017C156.148 25.5612 159.626 32.1782 168.283 31.6446C175.162 31.1939 180.034 28.4309 182.514 21.6479C184.995 14.8649 184.995 6.39803 208.485 7.20441C226.463 7.82104 228.279 10.2639 228.279 10.2639L230.21 54.6261C219.98 53.132 209.623 52.0529 198.46 53.5114C195.734 54.0584 193.259 55.3806 191.382 57.2938C189.505 59.2069 188.318 61.6156 187.987 64.184C186.709 73.6707 176.185 77.3468 169.894 77.3468C160.943 77.3468 156.34 71.7022 148.706 70.0658C136.725 67.4925 116.15 75.2716 116.15 75.2716V25.5612Z" fill="#BA68C8"/>
<path d="M237.523 118.306L227.191 117.63L227.46 132.667L238.546 140.173L239.671 139.794L240.311 122.694L237.523 118.306Z" fill="#EB996E"/>
<path d="M180.736 59.7488C180.557 59.7488 180.25 52.3966 180.058 43.3249C179.866 34.2532 179.866 26.8892 180.058 26.8892C180.25 26.8892 180.544 34.2295 180.736 43.313C180.927 52.3966 180.915 59.7369 180.736 59.7488Z" fill="#263238"/>
<path d="M161.811 40.48C162.003 40.48 162.143 48.0812 162.143 57.4375C162.143 66.7938 162.003 74.4069 161.811 74.4069C161.619 74.4069 161.479 66.8056 161.479 57.4375C161.479 48.0694 161.632 40.48 161.811 40.48Z" fill="#263238"/>
<g opacity="0.2">
<path d="M161.812 66.9239C161.684 70.3273 161.812 74.8453 161.812 74.8453C164.497 76.5055 170.034 77.5135 173.116 76.6241H173.205C175.243 76.019 177.078 74.9374 178.533 73.4835C179.989 72.0296 181.017 70.2524 181.517 68.3232C181.895 67.0377 182.059 65.706 182.002 64.3744C180.979 53.097 179.662 39.0448 180.046 27.7319C177.499 29.7287 174.462 31.1138 171.202 31.7652C167.942 32.4167 164.559 32.3143 161.352 31.4673L161.812 66.9239Z" fill="black"/>
</g>
<g opacity="0.6">
<path d="M160.125 33.0326C159.572 32.8049 159.045 32.5268 158.552 32.2025L154.371 29.8308C149.858 27.1029 144.856 25.1433 139.602 24.0439C134.305 23.141 128.851 23.4421 123.708 24.9214C121.598 25.6139 119.528 26.4055 117.506 27.2931C117.988 26.9511 118.501 26.6495 119.04 26.3919C120.491 25.6595 122.005 25.0408 123.567 24.542C128.767 22.908 134.332 22.5405 139.73 23.4747C145.063 24.5786 150.12 26.6194 154.626 29.4869C156.378 30.5305 157.746 31.4317 158.692 32.0602C159.202 32.3412 159.682 32.6668 160.125 33.0326Z" fill="white"/>
</g>
<g opacity="0.6">
<path d="M201.669 10.3825C201.669 10.4892 200.39 10.3825 198.395 10.5722C195.796 10.8551 193.313 11.7282 191.165 13.1141C189.017 14.5 187.271 16.3559 186.081 18.5173C185.161 20.1775 184.879 21.3278 184.803 21.2922C184.876 20.257 185.18 19.2473 185.698 18.3276C186.815 16.0231 188.587 14.0435 190.823 12.6002C193.06 11.157 195.677 10.3043 198.395 10.1334C199.493 10.0088 200.607 10.0935 201.669 10.3825Z" fill="white"/>
</g>
<path d="M229.186 5.71094L242.83 357.241L240.477 357.763L226.463 5.87695L229.186 5.71094Z" fill="#263238"/>
<path d="M254.415 138.204L249.3 121.14L231.117 109.281C231.117 109.281 228.994 110.467 232.242 114.914L236.321 120.132C236.321 120.132 236.193 126.927 239.684 130.911L238.559 140.113L254.415 138.204Z" fill="#FFBE9D"/>
<path d="M227.153 120.737C229.131 121.928 230.863 123.439 232.267 125.196C232.54 125.695 232.672 126.249 232.651 126.808C232.665 127.049 232.605 127.288 232.479 127.498C232.352 127.708 232.163 127.88 231.935 127.994C231.744 128.066 231.538 128.093 231.333 128.075C231.128 128.056 230.931 127.992 230.759 127.888C230.404 127.689 230.085 127.441 229.812 127.152L226.309 123.796C225.716 123.304 225.294 122.661 225.094 121.946C225.089 121.725 225.146 121.506 225.259 121.31C225.372 121.115 225.537 120.95 225.739 120.831C225.94 120.712 226.172 120.643 226.41 120.63C226.649 120.618 226.887 120.663 227.102 120.761" fill="#FFBE9D"/>
<path d="M227.127 125.089C229.099 126.287 230.83 127.796 232.241 129.548C232.511 130.048 232.643 130.602 232.625 131.161C232.639 131.401 232.579 131.64 232.453 131.85C232.326 132.06 232.137 132.232 231.909 132.346C231.714 132.411 231.507 132.434 231.302 132.416C231.096 132.398 230.897 132.337 230.72 132.24C230.369 132.041 230.054 131.793 229.786 131.505L226.321 128.232C225.736 127.736 225.319 127.093 225.119 126.382C225.118 126.161 225.177 125.944 225.291 125.751C225.405 125.557 225.57 125.393 225.77 125.275C225.971 125.157 226.2 125.087 226.437 125.073C226.675 125.06 226.912 125.102 227.127 125.196" fill="#FFBE9D"/>
<path d="M227.881 129.832C229.859 131.024 231.591 132.534 232.996 134.291C233.274 134.788 233.407 135.344 233.38 135.904C233.393 136.142 233.335 136.38 233.211 136.59C233.086 136.799 232.901 136.972 232.676 137.089C232.482 137.157 232.275 137.183 232.068 137.164C231.862 137.146 231.663 137.084 231.487 136.983C231.135 136.781 230.816 136.534 230.541 136.248L227.037 132.892C226.453 132.393 226.032 131.752 225.823 131.042C225.818 130.82 225.875 130.601 225.988 130.406C226.1 130.21 226.266 130.045 226.467 129.926C226.669 129.807 226.9 129.738 227.139 129.726C227.377 129.713 227.615 129.758 227.83 129.856" fill="#FFBE9D"/>
<path d="M227.984 117.737C228.785 118.073 229.506 118.552 230.106 119.148C230.413 119.465 230.616 119.856 230.693 120.275C230.77 120.695 230.717 121.126 230.541 121.52C230.468 121.672 230.355 121.805 230.212 121.907C230.069 122.009 229.901 122.075 229.723 122.101C229.471 122.112 229.222 122.054 229.006 121.935C228.509 121.723 228.041 121.456 227.613 121.14C227.19 120.775 226.801 120.379 226.449 119.954C226.207 119.78 226.04 119.531 225.979 119.253C225.918 118.974 225.967 118.684 226.117 118.436C226.385 117.867 226.654 117.535 227.984 117.677" fill="#FFBE9D"/>
<path d="M253.353 129.679L280.96 152.672L271.984 171.029L240.311 139.687L253.353 129.679Z" fill="#FFBE9D"/>
<path d="M252.254 128.682L276.817 146.019C276.817 146.019 299.668 109.875 301.688 107.633C303.708 105.392 308.836 102.985 308.836 102.985L305.997 149.316C305.997 149.316 293.645 178.57 276.677 176.981C263.685 175.795 241.244 143.991 241.244 143.991L252.254 128.682Z" fill="#BA68C8"/>
<g opacity="0.2">
<path d="M276.357 145.45C274.673 147.886 273.58 150.632 273.151 153.499C272.723 156.365 272.97 159.283 273.876 162.052C274.003 162.639 274.358 163.162 274.874 163.522C275.312 163.7 275.805 163.721 276.259 163.581C276.712 163.441 277.093 163.149 277.329 162.763C277.768 161.972 277.988 161.092 277.968 160.202C278.373 161.059 278.991 161.815 279.771 162.408C280.176 162.688 280.672 162.832 281.176 162.814C281.681 162.797 282.164 162.62 282.546 162.313C283.364 161.483 282.904 160.166 282.418 159.135C280.321 154.739 278.228 150.344 276.14 145.948" fill="black"/>
</g>
<path d="M258.429 133.864C256.746 136.88 254.867 139.799 252.803 142.604C250.927 145.518 248.864 148.326 246.627 151.012C248.304 147.992 250.183 145.073 252.253 142.272C254.128 139.357 256.191 136.549 258.429 133.864Z" fill="#263238"/>
<path d="M252.178 133.235C252.178 133.176 252.433 132.88 252.996 133.069C253.16 133.129 253.305 133.225 253.419 133.349C253.533 133.473 253.611 133.622 253.648 133.781C253.678 133.992 253.638 134.207 253.532 134.397C253.426 134.586 253.261 134.741 253.057 134.84C252.854 134.94 252.623 134.979 252.395 134.953C252.166 134.927 251.952 134.836 251.781 134.694C251.662 134.575 251.576 134.431 251.531 134.273C251.486 134.116 251.484 133.951 251.525 133.793C251.666 133.247 252.114 133.176 252.126 133.259C252.139 133.342 251.973 133.508 251.999 133.84C252.024 134.172 252.305 134.504 252.74 134.291C252.824 134.253 252.894 134.194 252.944 134.12C252.993 134.047 253.019 133.962 253.019 133.876C253.019 133.789 252.993 133.705 252.944 133.631C252.894 133.558 252.824 133.499 252.74 133.461C252.497 133.259 252.229 133.307 252.178 133.235Z" fill="#263238"/>
<path d="M276.843 156.977C275.421 153.453 275.358 149.582 276.664 146.02C276.856 146.02 276.332 148.486 276.396 151.51C276.46 154.534 277.035 156.929 276.843 156.977Z" fill="#263238"/>
<path d="M281.599 156.822C279.094 153.625 277.386 149.951 276.6 146.067C277.521 147.825 278.344 149.626 279.067 151.462C280.436 154.415 281.766 156.692 281.599 156.822Z" fill="#263238"/>
<path d="M360.226 98.5855L356.543 91.7432H329.69L325.471 99.4748L308.848 102.961L301.7 202.192C301.664 203.436 301.991 204.665 302.646 205.75L367.859 208.121L370.506 209.129C372.846 207.789 371.389 202.263 371.414 199.643L372.258 150.502L385.16 111.227L360.226 98.5855Z" fill="#BA68C8"/>
<g opacity="0.2">
<path d="M332.389 101.989L337.133 97.5898L342.478 109.519C348.614 106.175 354.455 102.384 359.944 98.1827L341.877 103.555C340.342 99.8073 338.816 96.0521 337.299 92.2891C336.219 95.703 334.69 98.9807 332.747 102.049" fill="black"/>
</g>
<path d="M408.087 222.98L390.505 223.822V177.029L372.322 150.514L385.224 111.239C387.884 112.211 407.921 158.862 413.023 171.539C413.763 173.362 414.085 175.309 413.969 177.254L408.087 222.98Z" fill="#BA68C8"/>
<path d="M308.834 123.488C309.026 123.488 308.144 133.105 306.891 144.916C305.638 156.727 304.461 166.261 304.333 166.261C304.206 166.261 305.024 156.644 306.277 144.821C307.53 132.999 308.655 123.417 308.834 123.488Z" fill="#263238"/>
<path d="M337.274 92.3125C336.415 95.0399 335.346 97.7069 334.077 100.293L333.719 101.1C333.599 101.413 333.397 101.694 333.131 101.918C332.967 102.037 332.769 102.107 332.561 102.12C332.354 102.132 332.147 102.087 331.968 101.989C331.661 101.847 331.443 101.692 331.213 101.562L328.796 100.044C328.023 99.618 327.31 99.1041 326.674 98.5144C327.514 98.8218 328.312 99.2198 329.052 99.7003L331.546 101.1C332.019 101.384 332.505 101.704 332.722 101.467C333.05 101.046 333.3 100.577 333.464 100.08C334.525 97.4069 335.799 94.8107 337.274 92.3125Z" fill="#263238"/>
<path d="M358.628 98.3963C357.306 99.0065 355.934 99.518 354.524 99.9261C351.966 100.804 348.412 101.966 344.473 103.211L342.325 103.887L342.031 103.982L341.916 103.721C340.535 100.614 339.359 97.8627 338.502 95.8705C337.998 94.8296 337.592 93.7505 337.287 92.645C337.912 93.6288 338.455 94.6556 338.911 95.7163C339.844 97.6611 341.11 100.389 342.53 103.484L342.108 103.318L344.256 102.63C348.194 101.444 351.775 100.258 354.37 99.511C355.758 99.0423 357.181 98.6697 358.628 98.3963Z" fill="#263238"/>
<path d="M382.424 112.649C382.424 112.827 378.704 113.835 374.318 115.59C369.932 117.345 366.645 119.361 366.518 119.148C367.116 118.572 367.806 118.084 368.563 117.701C372.071 115.635 375.889 114.06 379.893 113.029C380.71 112.782 381.564 112.654 382.424 112.649Z" fill="#263238"/>
<path d="M337.274 92.3125C337.289 92.4108 337.289 92.5107 337.274 92.609C337.274 92.8461 337.274 93.1307 337.274 93.4865C337.274 94.2573 337.351 95.3838 337.363 96.8424C337.363 99.7477 337.363 103.957 337.159 109.163C336.762 119.575 335.356 133.924 333.118 149.66C332.031 157.546 330.829 165.076 330.024 171.859C329.253 177.903 328.895 183.987 328.95 190.073C329.004 194.173 329.354 198.266 329.998 202.323C330.19 203.77 330.433 204.872 330.561 205.631C330.561 205.975 330.663 206.26 330.701 206.497C330.716 206.595 330.716 206.695 330.701 206.793C330.659 206.702 330.629 206.607 330.612 206.509C330.548 206.272 330.484 205.999 330.395 205.655C330.241 204.908 329.947 203.805 329.717 202.358C328.963 198.298 328.536 194.192 328.438 190.073C328.306 183.97 328.613 177.865 329.359 171.799C330.139 164.945 331.315 157.463 332.402 149.589C334.64 133.852 336.11 119.539 336.635 109.151C336.916 103.957 337.005 99.7477 337.057 96.8424C337.057 95.4194 337.057 94.3047 337.057 93.4865C337.057 93.1307 337.057 92.8461 337.057 92.6208C337.109 92.5071 337.183 92.4028 337.274 92.3125Z" fill="#263238"/>
<path d="M409.046 215.818C405.94 215.982 402.825 215.943 399.725 215.699C396.616 215.664 393.513 215.422 390.441 214.976C393.543 214.804 396.654 214.84 399.75 215.083C402.864 215.127 405.97 215.373 409.046 215.818Z" fill="#263238"/>
<path d="M393.446 217.644C393.446 217.644 393.446 217.869 393.446 218.083C393.446 218.296 393.727 218.427 393.958 218.249C394.188 218.071 394.111 217.893 393.894 217.751C393.676 217.608 393.497 217.668 393.433 217.608C393.369 217.549 393.548 217.264 394.034 217.336C394.175 217.356 394.307 217.409 394.419 217.49C394.531 217.571 394.619 217.677 394.674 217.798C394.734 217.963 394.739 218.142 394.686 218.31C394.634 218.477 394.527 218.626 394.381 218.736C394.235 218.846 394.056 218.911 393.868 218.924C393.68 218.936 393.493 218.895 393.331 218.806C393.216 218.726 393.124 218.622 393.062 218.503C392.999 218.383 392.969 218.251 392.973 218.118C393.063 217.668 393.408 217.561 393.446 217.644Z" fill="#263238"/>
<g opacity="0.2">
<path d="M372.54 150.383C370.622 147.181 368.713 143.979 366.812 140.777C364.549 157.723 365.852 174.915 370.648 191.401C371.245 177.795 371.837 164.194 372.425 150.596" fill="black"/>
</g>
<g opacity="0.2">
<path d="M292.506 121.401C294.233 123.684 296.723 125.377 299.591 126.217C302.459 127.057 305.546 126.998 308.374 126.05C308.792 126.643 309.36 127.133 310.029 127.476C310.697 127.819 311.446 128.005 312.21 128.018C313.724 128.038 315.226 127.768 316.622 127.224C321.979 125.332 326.742 122.23 330.478 118.198C334.214 114.165 336.805 109.332 338.014 104.135C329.741 106.827 324.166 114.262 316.047 117.346C312.854 118.583 309.377 119.058 305.935 118.729C302.493 118.399 299.195 117.276 296.342 115.46L292.506 121.401Z" fill="black"/>
</g>
<path d="M343.437 132.75C343.779 132.693 344.126 132.669 344.473 132.679L347.529 132.607C350.188 132.607 354.012 132.501 358.628 132.477H358.935V132.762C358.628 136.509 358.295 140.849 357.924 145.474V145.64L357.758 145.723L357.081 146.055L349.651 149.684L349.46 149.767L349.293 149.648L342.401 144.418L342.299 144.335V144.205C342.631 140.766 342.9 137.908 343.092 135.786C343.194 134.872 343.271 134.114 343.347 133.509C343.355 133.253 343.394 132.998 343.462 132.75C343.487 133.038 343.487 133.327 343.462 133.615C343.462 134.232 343.386 135.015 343.347 135.987C343.219 138.074 343.053 140.897 342.849 144.288L342.746 144.075L349.702 149.233H349.357L356.761 145.592L357.451 145.26L357.272 145.509L358.359 132.809L358.653 133.094C354.165 133.094 350.406 133.011 347.733 132.963L344.613 132.892C344.218 132.869 343.825 132.821 343.437 132.75Z" fill="#263238"/>
<path d="M358.219 138.442C353.153 138.766 348.066 138.679 343.016 138.181C345.541 137.913 348.087 137.854 350.624 138.003C353.165 137.946 355.706 138.092 358.219 138.442Z" fill="#FAFAFA"/>
<path d="M358.103 140.885C355.556 141.156 352.988 141.216 350.43 141.062C347.885 141.126 345.339 140.979 342.822 140.624C345.369 140.36 347.936 140.301 350.494 140.446C353.039 140.389 355.585 140.536 358.103 140.885Z" fill="#FAFAFA"/>
<path d="M311.175 206.284C311.175 206.45 309.807 206.284 308.925 204.991C308.042 203.699 308.311 202.513 308.49 202.619C308.669 202.726 308.72 203.687 309.474 204.695C310.229 205.703 311.239 206.118 311.175 206.284Z" fill="#263238"/>
<path d="M312.877 205.619C311.888 204.949 311.226 203.943 311.035 202.821C310.83 202.289 310.741 201.725 310.774 201.161C310.807 200.597 310.961 200.044 311.227 199.536C311.419 199.536 311.227 200.995 311.688 202.667C312.148 204.339 313.068 205.513 312.877 205.619Z" fill="#263238"/>
<path d="M362.119 198.801C362.245 200.519 361.897 202.238 361.107 203.796C360.317 205.355 359.112 206.7 357.605 207.706C358.681 206.383 359.652 204.987 360.508 203.532C361.169 201.994 361.708 200.412 362.119 198.801Z" fill="#263238"/>
<path d="M335.304 97.3765H338.833L340.342 99.8074L338.858 103.602L335.342 103.235L333.961 100.495L335.304 97.3765Z" fill="#455A64"/>
<path d="M335.343 103.235C335.343 103.235 314.116 115.911 303.273 110.848C292.43 105.784 278.978 99.5821 266.869 101.064C259.785 101.866 252.922 103.876 246.627 106.994L242.791 115.544L252.599 118.816C252.599 118.816 266.894 112.413 277.29 114.132C284.553 115.318 298.504 122.196 307.902 121.544C317.3 120.892 330.279 114.69 338.821 103.555L335.343 103.235Z" fill="#455A64"/>
<path d="M337.914 104.646C337.421 104.527 336.953 104.331 336.533 104.065C336.061 103.864 335.629 103.591 335.254 103.258C335.753 103.377 336.225 103.578 336.648 103.851C337.117 104.045 337.545 104.314 337.914 104.646Z" fill="#263238"/>
<path d="M340.01 99.3804C339.288 100.102 338.501 100.764 337.657 101.361C336.861 102.024 336.005 102.623 335.1 103.151C335.821 102.43 336.609 101.768 337.452 101.171C338.249 100.508 339.104 99.909 340.01 99.3804Z" fill="#263238"/>
<path d="M338.513 100.625C337.12 99.801 335.966 98.6733 335.15 97.3403C335.214 97.3403 335.879 98.0993 336.8 99.0005C337.721 99.9017 338.552 100.566 338.513 100.625Z" fill="#263238"/>
<path d="M320.984 117.773C320.781 117.452 320.622 117.11 320.511 116.753C320.242 116.113 319.897 115.223 319.539 114.239C319.181 113.255 318.861 112.353 318.644 111.701C318.513 111.35 318.415 110.989 318.35 110.622C318.549 110.944 318.708 111.286 318.823 111.642C319.091 112.282 319.437 113.172 319.795 114.156C320.153 115.14 320.472 116.041 320.677 116.694C320.815 117.044 320.917 117.405 320.984 117.773Z" fill="#FAFAFA"/>
<path d="M326.29 114.82C325.567 113.963 324.917 113.055 324.346 112.104C323.702 111.195 323.129 110.244 322.633 109.258C324.004 111.023 325.226 112.882 326.29 114.82Z" fill="#FAFAFA"/>
<path d="M331.098 111.357C330.311 110.82 329.583 110.212 328.924 109.543C328.2 108.936 327.54 108.264 326.955 107.539C328.452 108.698 329.839 109.976 331.098 111.357Z" fill="#FAFAFA"/>
<path d="M335.074 107.729C334.483 107.419 333.933 107.045 333.437 106.614C332.892 106.236 332.398 105.798 331.967 105.31C332.567 105.606 333.119 105.982 333.604 106.424C334.16 106.79 334.655 107.23 335.074 107.729Z" fill="#FAFAFA"/>
<path d="M313.426 120.82C313.217 119.396 313.093 117.963 313.055 116.527C312.924 115.096 312.885 113.658 312.94 112.223C313.157 113.646 313.285 115.079 313.324 116.515C313.447 117.947 313.481 119.384 313.426 120.82Z" fill="#FAFAFA"/>
<path d="M306.15 121.875C306.15 121.875 306.342 119.67 306.739 116.966C307.135 114.262 307.519 112.068 307.583 112.08C307.485 113.725 307.293 115.364 307.007 116.99C306.815 118.631 306.529 120.262 306.15 121.875Z" fill="#FAFAFA"/>
<path d="M301.853 110.076C301.917 110.076 301.239 112.448 300.318 115.365C299.398 118.282 298.618 120.595 298.541 120.583C298.464 120.571 299.155 118.211 300.063 115.294C300.97 112.377 301.776 110.064 301.853 110.076Z" fill="#FAFAFA"/>
<path d="M296.905 107.918C296.982 107.918 296.163 110.372 295.102 113.337C294.041 116.302 293.107 118.709 293.03 118.685C292.954 118.661 293.772 116.242 294.846 113.266C295.92 110.289 296.841 107.894 296.905 107.918Z" fill="#FAFAFA"/>
<path d="M289.758 104.811C289.758 104.811 289.106 107.467 288.16 110.74C287.214 114.013 286.382 116.575 286.318 116.563C286.255 116.551 286.958 113.906 287.904 110.634C288.85 107.361 289.681 104.799 289.758 104.811Z" fill="#FAFAFA"/>
<path d="M282.097 102.878C282.174 102.878 281.611 105.499 280.819 108.701C280.026 111.903 279.386 114.488 279.31 114.464C279.233 114.44 279.796 111.843 280.588 108.653C281.381 105.464 282.033 102.867 282.097 102.878Z" fill="#FAFAFA"/>
<path d="M274.375 101.646C274.451 101.646 274.541 104.409 274.566 107.824C274.592 111.239 274.566 114.026 274.49 114.026C274.413 114.026 274.336 111.251 274.311 107.836C274.285 104.42 274.311 101.646 274.375 101.646Z" fill="#FAFAFA"/>
<path d="M268.173 114.263C268.109 114.101 268.058 113.934 268.02 113.765C267.918 113.302 267.815 112.84 267.7 112.366C267.444 111.18 267.138 109.555 266.856 107.741C266.575 105.926 266.358 104.278 266.242 103.08C266.242 102.606 266.153 102.144 266.115 101.669C266.082 101.497 266.082 101.32 266.115 101.147C266.166 101.314 266.201 101.485 266.217 101.657C266.217 102.12 266.358 102.594 266.421 103.069C266.652 104.551 266.869 106.057 267.112 107.705C267.355 109.353 267.636 110.859 267.892 112.342L268.122 113.741C268.168 113.912 268.185 114.088 268.173 114.263Z" fill="#FAFAFA"/>
<path d="M261.306 115.578C261.242 115.578 260.194 112.839 258.966 109.436C257.739 106.032 256.818 103.234 256.882 103.21C256.946 103.186 258.007 105.938 259.222 109.353C260.437 112.768 261.383 115.555 261.306 115.578Z" fill="#FAFAFA"/>
<path d="M255.08 117.618C255.016 117.618 253.647 115.104 252.024 111.926C250.4 108.748 249.134 106.163 249.198 106.127C249.262 106.092 250.643 108.653 252.266 111.819C253.89 114.986 255.144 117.559 255.08 117.618Z" fill="#FAFAFA"/>
<path d="M246.999 116.954C246.371 116.299 245.861 115.554 245.49 114.748C245.032 113.983 244.724 113.147 244.582 112.282C244.659 112.282 245.055 113.361 245.72 114.653C246.385 115.946 247.063 116.907 246.999 116.954Z" fill="#FAFAFA"/>
</svg>
