<svg width="37" height="50" viewBox="0 0 37 50" fill="none" xmlns="http://www.w3.org/2000/svg">
<path d="M34.6493 8.32956C33.1314 5.88454 30.7549 3.84734 27.811 2.3696C24.8684 0.89841 21.3163 7.03257e-05 17.4611 7.03257e-05C12.7091 -0.00989061 8.76095 1.03933 5.78111 2.49236C2.78939 3.94021 1.49946 5.62595 1.49946 5.62595C0.996689 5.99568 0.713098 6.53357 0.724968 7.09626C0.738565 7.65974 1.04474 8.18864 1.56307 8.54001L5.70378 11.3506C6.54776 11.9232 7.75565 11.9017 8.57024 11.3C8.57024 11.3 9.07888 10.5209 10.6729 9.74919C12.2758 8.98259 14.3541 8.36511 17.4611 8.35681C20.1711 8.35183 22.534 9.20886 24.1466 10.38C24.9477 10.9601 25.5461 11.6098 25.9129 12.2042C26.2826 12.8034 26.4175 13.3272 26.4157 13.7251C26.4078 15.0694 26.0997 15.9487 25.6548 16.6979C25.3154 17.2574 24.8724 17.7539 24.3022 18.2354C23.4513 18.9565 22.2973 19.6228 21.0025 20.2353C19.7067 20.8552 18.3101 21.4006 16.8988 22.0595C15.2881 22.8154 13.5835 23.9011 12.3239 25.5306C11.696 26.3362 11.205 27.2578 10.8931 28.23C10.5772 29.203 10.4345 30.2233 10.4345 31.2642C10.4345 32.3748 10.4345 33.2865 10.4345 33.2865C10.4345 34.3333 11.4359 35.182 12.6712 35.182H18.0598C19.295 35.182 20.2965 34.3333 20.2965 33.2865C20.2965 33.2865 20.2965 32.3748 20.2965 31.2642C20.2965 30.8632 20.3503 30.6046 20.4022 30.4404C20.4912 30.1951 20.5411 30.1338 20.6868 29.9845C20.8354 29.8427 21.1356 29.6258 21.6891 29.3663C22.4979 28.9809 23.7977 28.4604 25.2694 27.7866C27.4728 26.7655 30.1516 25.3798 32.4107 23.093C33.5345 21.9518 34.528 20.5776 35.2136 18.9946C35.9051 17.4116 36.2786 15.6322 36.2767 13.7251C36.2747 11.793 35.6565 9.95808 34.6493 8.32956Z" fill="black"/>
<path d="M15.3681 39.6914C12.0088 39.6914 9.28516 42.0004 9.28516 44.8465C9.28516 47.6918 12.009 50 15.3681 50C18.7256 50 21.4483 47.6918 21.4483 44.8465C21.4483 42.0004 18.7256 39.6914 15.3681 39.6914Z" fill="black"/>
</svg>
