<svg width="145" height="16" viewBox="0 0 145 16" fill="none" xmlns="http://www.w3.org/2000/svg">
<rect x="1" y="0.5" width="69" height="15" rx="1.5" fill="black"/>
<rect x="1" y="0.5" width="69" height="15" rx="1.5" stroke="#A6A6A6"/>
<path d="M49.9719 12.0566H50.7708V8.1412H49.9719V12.0566ZM57.1677 9.5517L56.2519 11.2492H56.2245L55.274 9.5517H54.4134L55.8392 11.9241L55.0261 13.2439H55.8593L58.0561 9.5517H57.1677ZM52.6367 11.6119C52.3755 11.6119 52.0103 11.5161 52.0103 11.2794C52.0103 10.9772 52.465 10.8613 52.8572 10.8613C53.2082 10.8613 53.3739 10.9167 53.5871 10.9923C53.5251 11.355 53.0982 11.6119 52.6367 11.6119ZM52.7334 9.46604C52.155 9.46604 51.556 9.65248 51.3081 10.0655L52.0171 10.2821C52.1687 10.0655 52.4509 9.99506 52.7471 9.99506C53.1603 9.99506 53.5803 10.1762 53.5871 10.4987V10.539C53.4424 10.4785 53.1324 10.3879 52.754 10.3879C51.9893 10.3879 51.2114 10.6951 51.2114 11.2693C51.2114 11.7932 51.8382 12.1308 52.5403 12.1308C53.0772 12.1308 53.3739 11.9545 53.5593 11.7478H53.5871V12.0503H54.3586V10.549C54.3586 9.85387 53.6488 9.46604 52.7334 9.46604ZM47.7961 10.0283H46.6598V8.68625H47.7961C48.3934 8.68625 48.7324 9.0479 48.7324 9.35727C48.7324 9.66069 48.3934 10.0283 47.7961 10.0283ZM47.7756 8.1412H45.8613V12.0566H46.6598V10.5732H47.7756C48.6609 10.5732 49.5314 10.1044 49.5314 9.35727C49.5314 8.61027 48.6609 8.1412 47.7756 8.1412ZM37.3369 11.6126C36.785 11.6126 36.3231 11.2745 36.3231 10.8105C36.3231 10.341 36.785 9.99809 37.3369 9.99809C37.8818 9.99809 38.3094 10.341 38.3094 10.8105C38.3094 11.2745 37.8818 11.6126 37.3369 11.6126ZM38.2542 9.77094H38.2266C38.0473 9.61456 37.7023 9.47328 37.268 9.47328C36.3573 9.47328 35.5228 10.0587 35.5228 10.8105C35.5228 11.5571 36.3573 12.1374 37.268 12.1374C37.7023 12.1374 38.0473 11.9961 38.2266 11.8347H38.2542V12.0263C38.2542 12.5361 37.8818 12.8084 37.2817 12.8084C36.7922 12.8084 36.4887 12.5511 36.3644 12.3342L35.6678 12.5461C35.8677 12.8992 36.3987 13.3333 37.2817 13.3333C38.2199 13.3333 39.0131 12.9295 39.0131 11.9455V9.55402H38.2542V9.77094ZM39.5651 12.0566H40.3648V8.1412H39.5651V12.0566ZM41.5444 10.7649C41.5238 10.2502 42.0896 9.98795 42.4963 9.98795C42.8137 9.98795 43.0825 10.104 43.1725 10.2704L41.5444 10.7649ZM44.0274 10.3208C43.8757 10.0233 43.4137 9.47328 42.4687 9.47328C41.5305 9.47328 40.7511 10.0132 40.7511 10.8053C40.7511 11.5521 41.5238 12.1374 42.5582 12.1374C43.3927 12.1374 43.8757 11.7641 44.0759 11.5471L43.4551 11.2443C43.2481 11.4663 42.9654 11.6126 42.5582 11.6126C42.1515 11.6126 41.8616 11.4764 41.6757 11.2089L44.1102 10.4723L44.0274 10.3208ZM24.6293 9.88199V10.4471H26.4778C26.4226 10.7649 26.2778 10.997 26.0571 11.1585C25.788 11.3552 25.3672 11.5723 24.6293 11.5723C23.4912 11.5723 22.6015 10.9012 22.6015 10.0687C22.6015 9.23616 23.4912 8.56501 24.6293 8.56501C25.2432 8.56501 25.6915 8.74166 26.0226 8.96872L26.5677 8.57002C26.1054 8.24715 25.4916 7.99992 24.6293 7.99992C23.0703 7.99992 21.7598 8.92835 21.7598 10.0687C21.7598 11.2089 23.0703 12.1374 24.6293 12.1374C25.4707 12.1374 26.1054 11.9355 26.602 11.5571C27.1124 11.1837 27.2711 10.659 27.2711 10.2351C27.2711 10.104 27.2572 9.98294 27.2296 9.88199H24.6293ZM29.3727 11.6126C28.8207 11.6126 28.3448 11.2796 28.3448 10.8053C28.3448 10.326 28.8207 9.99809 29.3727 9.99809C29.9244 9.99809 30.4003 10.326 30.4003 10.8053C30.4003 11.2796 29.9244 11.6126 29.3727 11.6126ZM29.3727 9.47328C28.3653 9.47328 27.5447 10.0333 27.5447 10.8053C27.5447 11.5723 28.3653 12.1374 29.3727 12.1374C30.3796 12.1374 31.2004 11.5723 31.2004 10.8053C31.2004 10.0333 30.3796 9.47328 29.3727 9.47328ZM33.3598 11.6126C32.8083 11.6126 32.3322 11.2796 32.3322 10.8053C32.3322 10.326 32.8083 9.99809 33.3598 9.99809C33.9118 9.99809 34.3876 10.326 34.3876 10.8053C34.3876 11.2796 33.9118 11.6126 33.3598 11.6126ZM33.3598 9.47328C32.3529 9.47328 31.5322 10.0333 31.5322 10.8053C31.5322 11.5723 32.3529 12.1374 33.3598 12.1374C34.3672 12.1374 35.1878 11.5723 35.1878 10.8053C35.1878 10.0333 34.3672 9.47328 33.3598 9.47328Z" fill="white"/>
<path d="M8.93964 9.66146L5.70117 12.5904C5.70129 12.591 5.70154 12.5915 5.70166 12.5921C5.80097 12.9101 6.14187 13.1443 6.54646 13.1443C6.7082 13.1443 6.86004 13.107 6.99026 13.0416L7.00061 13.0365L10.6459 11.2441L8.93964 9.66146Z" fill="#EA4335"/>
<path d="M12.2152 9.16261L12.2121 9.16079L10.6383 8.38339L8.86523 9.72778L10.6445 11.2437L12.2099 10.474C12.4844 10.3477 12.6707 10.1012 12.6707 9.81686C12.6707 9.5346 12.4869 9.28927 12.2152 9.16261Z" fill="#FBBC04"/>
<path d="M5.69962 7.03141C5.68015 7.09258 5.66992 7.15665 5.66992 7.22319V12.3987C5.66992 12.4651 5.68003 12.5294 5.69974 12.5903L9.04967 9.73636L5.69962 7.03141Z" fill="#4285F4"/>
<path d="M8.96364 9.81079L10.6399 8.38289L6.99869 6.58403C6.86634 6.51648 6.71188 6.4775 6.54658 6.4775C6.14199 6.4775 5.80064 6.7121 5.70129 7.03052C5.70117 7.03083 5.70117 7.03103 5.70117 7.03132L8.96364 9.81079Z" fill="#34A853"/>
<rect x="75" y="0.5" width="69" height="15" rx="1.5" fill="#0C0D10"/>
<rect x="75" y="0.5" width="69" height="15" rx="1.5" stroke="#A6A6A6"/>
<path d="M119.937 7.81734V8.59457H119.156V9.10428H119.937V10.8362C119.937 11.4275 120.366 11.6641 121.445 11.6641C121.634 11.6641 121.815 11.65 121.973 11.6331V11.129C121.838 11.1375 121.752 11.1431 121.603 11.1431C121.12 11.1431 120.907 11.0023 120.907 10.6813V9.10428H121.973V8.59457H120.907V7.81734H119.937Z" fill="white"/>
<path d="M124.722 11.7063C126.157 11.7063 127.038 11.1065 127.038 10.1124C127.038 9.12399 126.153 8.52136 124.722 8.52136C123.286 8.52136 122.401 9.12399 122.401 10.1124C122.401 11.1065 123.282 11.7063 124.722 11.7063ZM124.722 11.1684C123.877 11.1684 123.403 10.7826 123.403 10.1124C123.403 9.44784 123.877 9.05922 124.722 9.05922C125.561 9.05922 126.04 9.44784 126.04 10.1124C126.04 10.7798 125.561 11.1684 124.722 11.1684Z" fill="white"/>
<path d="M127.791 11.6472H128.762V9.83645C128.762 9.4056 129.281 9.11554 130.017 9.11554C130.188 9.11554 130.477 9.13525 130.559 9.15215V8.55515C130.455 8.53825 130.27 8.5298 130.125 8.5298C129.484 8.5298 128.938 8.74946 128.798 9.05077H128.726V8.58049H127.791V11.6472Z" fill="white"/>
<path d="M132.969 9.03669C133.686 9.03669 134.156 9.34927 134.179 9.83082H131.695C131.75 9.35209 132.251 9.03669 132.969 9.03669ZM134.174 10.8193C133.993 11.0586 133.592 11.191 133.005 11.191C132.228 11.191 131.727 10.8502 131.695 10.3124V10.2786H135.167V10.0674C135.167 9.10428 134.341 8.52136 132.973 8.52136C131.587 8.52136 130.707 9.1437 130.707 10.1237C130.707 11.1037 131.569 11.7063 132.978 11.7063C134.102 11.7063 134.887 11.3684 135.109 10.8193H134.174Z" fill="white"/>
<path d="M113.571 10.5147C113.646 11.2677 114.652 11.7493 116.15 11.7493C117.75 11.7493 118.751 11.2444 118.751 10.4388C118.751 9.80544 118.181 9.45519 116.795 9.25379L116.051 9.13996C115.172 9.01154 114.816 8.83933 114.816 8.5387C114.816 8.15926 115.368 7.91117 116.196 7.91117C116.983 7.91117 117.525 8.15342 117.624 8.54162H118.644C118.583 7.83236 117.582 7.33325 116.211 7.33325C114.737 7.33325 113.754 7.83236 113.754 8.58248C113.754 9.20126 114.311 9.56902 115.532 9.74706L116.402 9.87841C117.296 10.0098 117.689 10.2024 117.689 10.5235C117.689 10.8971 117.072 11.1685 116.229 11.1685C115.326 11.1685 114.699 10.9146 114.61 10.5147H113.571Z" fill="white"/>
<path d="M103.516 8.5298C102.848 8.5298 102.27 8.73819 101.972 9.08738H101.9V8.58049H100.965V12.6666H101.936V11.1825H102.013C102.27 11.5064 102.826 11.6979 103.525 11.6979C104.767 11.6979 105.557 11.0868 105.557 10.1124C105.557 9.13807 104.767 8.5298 103.516 8.5298ZM103.241 11.1544C102.428 11.1544 101.918 10.7545 101.918 10.1152C101.918 9.47318 102.428 9.0733 103.245 9.0733C104.067 9.0733 104.559 9.46473 104.559 10.1124C104.559 10.7629 104.067 11.1544 103.241 11.1544Z" fill="white"/>
<path d="M108.953 8.5298C108.285 8.5298 107.707 8.73819 107.409 9.08738H107.337V8.58049H106.403V12.6666H107.373V11.1825H107.45C107.707 11.5064 108.263 11.6979 108.962 11.6979C110.204 11.6979 110.994 11.0868 110.994 10.1124C110.994 9.13807 110.204 8.5298 108.953 8.5298ZM108.678 11.1544C107.865 11.1544 107.355 10.7545 107.355 10.1152C107.355 9.47318 107.865 9.0733 108.683 9.0733C109.504 9.0733 109.996 9.46473 109.996 10.1124C109.996 10.7629 109.504 11.1544 108.678 11.1544Z" fill="white"/>
<path d="M99.2239 11.6472H100.338L97.8997 7.43541H96.7719L94.334 11.6472H95.4102L96.0326 10.5293H98.6062L99.2239 11.6472ZM97.282 8.20012H97.3615L98.3395 9.98056H96.2993L97.282 8.20012Z" fill="white"/>
<path d="M85.9462 6.87856C85.9547 6.36393 86.3114 5.87697 86.8773 5.60742C86.5203 5.21239 85.9224 4.96193 85.3003 4.94684C84.6369 4.89288 83.9936 5.25447 83.6555 5.25447C83.3109 5.25447 82.7903 4.9522 82.2298 4.96114C81.4991 4.97943 80.818 5.30131 80.4625 5.79627C79.6983 6.82139 80.2683 8.32796 81.0003 9.15658C81.3665 9.56234 81.7945 10.0156 82.3546 9.9995C82.9026 9.98189 83.1073 9.72872 83.7689 9.72872C84.4242 9.72872 84.6163 9.9995 85.1877 9.98928C85.7758 9.98189 86.1463 9.58173 86.4997 9.17213C86.7628 8.88302 86.9653 8.56348 87.0996 8.22536C86.4085 7.99888 85.947 7.45998 85.9462 6.87856Z" fill="white"/>
<path d="M84.8669 4.4019C85.1875 4.10365 85.3455 3.72029 85.3072 3.33325C84.8174 3.37312 84.3649 3.55453 84.0399 3.84134C83.7221 4.12157 83.5567 4.49817 83.588 4.87042C84.078 4.87433 84.5598 4.69784 84.8669 4.4019Z" fill="white"/>
</svg>
