<svg width="37" height="33" viewBox="0 0 37 33" fill="none" xmlns="http://www.w3.org/2000/svg">
<path d="M34.0154 7.9626C33.4644 8.64535 33.0092 9.6271 32.6252 10.6721C32.2247 11.7616 31.8422 13.0889 31.4957 14.5849C30.8017 17.5794 30.2282 21.3489 29.9529 25.4389L33.6944 25.6906C33.9574 21.7818 34.5042 18.2126 35.1487 15.4313C35.4714 14.0396 35.8127 12.8696 36.1449 11.9656C36.4937 11.0168 36.7799 10.5083 36.9339 10.3176L34.0154 7.9626ZM3.86387 26.3363C5.5095 21.8253 8.44655 17.0114 12.1026 12.8484C15.7647 8.6786 20.052 5.27085 24.3314 3.45085L22.8637 0C17.9209 2.1021 13.1969 5.91935 9.28502 10.3738C5.36717 14.8349 2.16775 20.0436 0.340998 25.0511L3.86387 26.3363ZM26.5549 28.7401H21.458V32.4901H26.5549V28.7401ZM21.458 28.7401H10.6254V32.4901H21.458V28.7401ZM10.6254 28.7401H6.16712V32.4901H10.6254V28.7401ZM23.3329 30.6151C23.3329 28.3744 24.1757 23.6034 25.8707 18.5844C27.5729 13.5439 29.9994 8.66685 32.9269 5.95135L30.3769 3.2021C26.7422 6.57335 24.0719 12.1904 22.3177 17.3846C20.5563 22.6003 19.583 27.8054 19.583 30.6151H23.3329ZM0.340998 25.0511C-0.384802 27.0406 0.0997724 28.9814 1.30475 30.3684C2.47397 31.7141 4.26275 32.4901 6.16712 32.4901V28.7401C5.25652 28.7401 4.53425 28.3676 4.13552 27.9088C3.77257 27.4911 3.6323 26.9711 3.86387 26.3363L0.340998 25.0511ZM29.9529 25.4389C29.8274 27.3039 28.3192 28.7401 26.5549 28.7401V32.4901C30.4207 32.4901 33.4452 29.3943 33.6944 25.6906L29.9529 25.4389ZM12.5004 30.6151C12.5004 30.2299 12.6057 29.5143 12.8841 28.4658C13.1538 27.4501 13.5573 26.2261 14.082 24.8673C15.1317 22.1488 16.6365 18.9681 18.4376 15.9446C20.2456 12.9096 22.3077 10.1081 24.4499 8.08985C26.6292 6.03685 28.6502 5.01785 30.4024 5.01785V1.26785C27.2384 1.26785 24.3294 3.05135 21.8784 5.36035C19.3909 7.70385 17.1231 10.8238 15.2159 14.0253C13.3019 17.2386 11.7059 20.6104 10.5838 23.5166C10.0226 24.9699 9.57232 26.3261 9.25972 27.5034C8.9559 28.6479 8.75042 29.7379 8.75042 30.6151H12.5004Z" fill="black"/>
</svg>
