<svg width="35" height="34" viewBox="0 0 35 34" fill="none" xmlns="http://www.w3.org/2000/svg">
<path d="M5.20592 10.0288C5.32492 11.0575 6.25517 11.795 7.28367 11.6761C8.31242 11.5572 9.04992 10.6269 8.93117 9.59821L5.20592 10.0288ZM6.74842 16.7335C7.41567 15.9416 7.31467 14.7587 6.52292 14.0914C5.73092 13.4242 4.54817 13.5252 3.88092 14.3171L6.74842 16.7335ZM30.4204 12.9777C29.7054 12.2286 28.5187 12.2009 27.7694 12.9159C27.0204 13.6309 26.9927 14.8178 27.7077 15.5669L30.4204 12.9777ZM25.2914 8.58991C25.2009 9.62149 25.9639 10.531 26.9954 10.6214C28.0272 10.7117 28.9367 9.94874 29.0269 8.91716L25.2914 8.58991ZM25.9814 20.9118L25.0054 21.1749L25.9814 24.7957L26.9574 24.5327L25.9814 20.9118ZM20.5787 24.6477L20.0862 25.5375L23.3672 27.3532L23.8597 26.4637L20.5787 24.6477ZM14.5649 25.9235L14.0492 25.087L10.8569 27.0547L11.3727 27.8912L14.5649 25.9235ZM9.41567 21.9987L8.43392 21.839L7.83167 25.5402L8.81317 25.7L9.41567 21.9987ZM13.4119 6.05569L14.3339 6.41011L15.6794 2.90989L14.7577 2.55546L13.4119 6.05569ZM19.9257 6.12466L20.8367 5.67351L19.1727 2.31296L18.2617 2.76409L19.9257 6.12466ZM14.3339 6.41011C15.1954 6.74141 16.1334 7.14226 17.1579 7.08821L16.9604 3.34341C16.9589 3.34349 16.9572 3.34354 16.9542 3.34339C16.9509 3.34321 16.9429 3.34269 16.9289 3.34061C16.8994 3.33624 16.8422 3.32511 16.7402 3.29524C16.5109 3.22796 16.2134 3.11516 15.6794 2.90989L14.3339 6.41011ZM18.2617 2.76409C17.7359 3.02439 17.4357 3.17166 17.2017 3.26571C17.0964 3.30804 17.0344 3.32696 16.9999 3.33574C16.9834 3.33994 16.9737 3.34171 16.9689 3.34246C16.9642 3.34316 16.9619 3.34334 16.9604 3.34341L17.1579 7.08821C18.1689 7.03486 19.0717 6.54754 19.9257 6.12466L18.2617 2.76409ZM8.93117 9.59821C8.70292 7.62521 8.56167 6.35931 8.59142 5.46286C8.60567 5.03586 8.65792 4.81359 8.69742 4.70691C8.70642 4.68296 8.71367 4.66736 8.71842 4.65826C8.72317 4.64931 8.72592 4.64541 8.72617 4.64491C8.72642 4.64449 8.72692 4.64416 8.72617 4.64491C8.72542 4.64559 8.72592 4.64506 8.73067 4.64139L6.41517 1.69171C5.17992 2.66131 4.88567 4.06634 4.84342 5.33869C4.80242 6.58156 4.99242 8.18114 5.20592 10.0288L8.93117 9.59821ZM14.7577 2.55546C13.0359 1.89349 11.5414 1.31341 10.3329 1.04759C9.09092 0.774462 7.65567 0.717837 6.41517 1.69171L8.73067 4.64139C8.73517 4.63966 8.73767 4.63596 8.73067 4.64139C8.72767 4.64256 8.74392 4.63396 8.78942 4.62886C8.89517 4.61706 9.11617 4.61964 9.52742 4.71006C10.3922 4.90024 11.5704 5.34766 13.4119 6.05569L14.7577 2.55546ZM8.43392 21.839C6.47267 21.5198 5.21967 21.3107 4.37967 21.0404C3.55542 20.7751 3.68592 20.6236 3.74492 20.7939L0.20002 22.0175C0.72747 23.5455 2.04097 24.2272 3.23117 24.6102C4.40542 24.988 5.99842 25.242 7.83167 25.5402L8.43392 21.839ZM3.88092 14.3171C2.64992 15.7779 1.58922 17.0295 0.924596 18.094C0.259296 19.1596 -0.31833 20.5157 0.20002 22.0175L3.74492 20.7939C3.79442 20.9379 3.61767 20.8613 4.10542 20.08C4.59417 19.2975 5.43892 18.2877 6.74842 16.7335L3.88092 14.3171ZM14.0492 25.087C13.5724 24.3137 13.0639 23.4122 12.2064 22.8417L10.1289 25.9637C10.1039 25.947 10.1334 25.9522 10.2522 26.1137C10.3917 26.3025 10.5579 26.5697 10.8569 27.0547L14.0492 25.087ZM8.81317 25.7C9.38167 25.7925 9.69867 25.8457 9.93192 25.9032C10.1334 25.9532 10.1529 25.9797 10.1289 25.9637L12.2064 22.8417C11.3537 22.2742 10.3244 22.1467 9.41567 21.9987L8.81317 25.7ZM20.0862 25.5375C19.1052 27.3102 18.4657 28.4557 17.9082 29.1922C17.6412 29.5452 17.4632 29.7062 17.3632 29.7757C17.3194 29.8062 17.3004 29.8122 17.3034 29.8112C17.3044 29.811 17.3074 29.81 17.3114 29.8092C17.3157 29.8082 17.3177 29.8082 17.3164 29.8082L17.5139 33.553C19.0829 33.4702 20.1339 32.4655 20.8984 31.4552C21.6567 30.4532 22.4449 29.0197 23.3672 27.3532L20.0862 25.5375ZM11.3727 27.8912C12.3347 29.452 13.1692 30.816 13.9659 31.7512C14.7824 32.71 15.9099 33.6377 17.5139 33.553L17.3164 29.8082C17.3149 29.8085 17.3184 29.8082 17.3259 29.8087C17.3332 29.8095 17.3409 29.811 17.3477 29.8127C17.3634 29.8165 17.3582 29.8182 17.3279 29.8005C17.2532 29.7572 17.0889 29.6345 16.8207 29.3195C16.2564 28.6572 15.5962 27.5962 14.5649 25.9235L11.3727 27.8912ZM25.0054 21.1749C24.0839 21.4233 23.0979 21.653 22.3002 22.2795L24.6157 25.229C24.6167 25.2282 24.6557 25.1922 24.8617 25.1192C25.0982 25.035 25.4182 24.9475 25.9814 24.7957L25.0054 21.1749ZM23.8597 26.4637C24.4762 25.3497 24.5567 25.2755 24.6157 25.229L22.3002 22.2795C21.5044 22.904 21.0439 23.807 20.5787 24.6477L23.8597 26.4637ZM27.7077 15.5669C29.0622 16.9859 29.9194 17.8918 30.4174 18.6061C30.6539 18.9453 30.7329 19.1381 30.7577 19.2262C30.7679 19.2628 30.7657 19.2712 30.7657 19.2597C30.7657 19.2467 30.7684 19.2379 30.7672 19.2415L34.3519 20.3423C34.8207 18.8162 34.2167 17.4986 33.4934 16.4613C32.7904 15.4529 31.6842 14.3016 30.4204 12.9777L27.7077 15.5669ZM26.9574 24.5327C28.7844 24.0402 30.3582 23.621 31.5097 23.1245C32.6764 22.6215 33.8922 21.8403 34.3519 20.3423L30.7672 19.2415C30.7662 19.2437 30.7662 19.2449 30.7672 19.2415C30.7674 19.2412 30.7682 19.2394 30.7672 19.2415C30.7669 19.242 30.7654 19.2443 30.7582 19.2526C30.7507 19.2611 30.7377 19.2746 30.7172 19.2927C30.6254 19.3734 30.4282 19.5072 30.0252 19.6809C29.1824 20.0442 27.9269 20.3875 25.9814 20.9118L26.9574 24.5327ZM29.0269 8.91716C29.1907 7.04986 29.3372 5.43414 29.2627 4.19726C29.1874 2.95154 28.8599 1.50274 27.5154 0.608163L25.4382 3.73024C25.2834 3.62729 25.4662 3.53976 25.5194 4.42286C25.5732 5.31476 25.4659 6.59541 25.2914 8.58991L29.0269 8.91716ZM20.8367 5.67351C22.6529 4.77419 23.8289 4.19711 24.6987 3.91231C25.5677 3.62776 25.5802 3.82466 25.4382 3.73024L27.5154 0.608163C26.1837 -0.277912 24.7209 -0.0408874 23.5317 0.348538C22.3432 0.737738 20.8782 1.46851 19.1727 2.31296L20.8367 5.67351Z" fill="black"/>
</svg>
