<svg width="600" height="532" viewBox="0 0 600 532" fill="none" xmlns="http://www.w3.org/2000/svg">
<path opacity="0.6" d="M-1 290.776C0.807205 289.605 2.61441 288.668 4.22081 287.262C32.7345 264.534 61.0474 241.806 89.561 219.078C91.3682 217.672 93.3763 216.266 95.5851 214.392C121.087 253.521 146.388 292.182 171.688 330.843C256.377 132.347 438.352 75.6815 601 0C600.197 0.937233 599.394 1.87447 598.39 2.57739C597.386 3.51462 596.382 4.21755 595.378 4.92047C448.994 122.309 324.899 265.705 227.31 439.328C211.849 466.742 197.993 495.093 183.536 523.21C178.716 532.817 172.291 534.691 164.46 528.131C161.648 525.788 159.44 522.507 157.231 519.227C107.432 443.311 56.2282 368.567 2.41361 296.4C1.40961 294.994 0.204803 293.588 -1 292.417C-1 291.714 -1 291.245 -1 290.776Z" fill="#B40FBF" fill-opacity="0.05"/>
</svg>
